<?xml version="1.0" encoding="UTF-8" standalone="no"?>
<svg
   xmlns:dc="http://purl.org/dc/elements/1.1/"
   xmlns:cc="http://creativecommons.org/ns#"
   xmlns:rdf="http://www.w3.org/1999/02/22-rdf-syntax-ns#"
   xmlns:svg="http://www.w3.org/2000/svg"
   xmlns="http://www.w3.org/2000/svg"
   xmlns:sodipodi="http://sodipodi.sourceforge.net/DTD/sodipodi-0.dtd"
   xmlns:inkscape="http://www.inkscape.org/namespaces/inkscape"
   width="190px"
   height="170px"
   viewBox="0 0 190 170"
   version="1.1"
   id="SVGRoot"
   sodipodi:docname="logo_project.svg"
   inkscape:version="1.0.2 (e86c870879, 2021-01-15)">
  <sodipodi:namedview
     pagecolor="#ffffff"
     bordercolor="#666666"
     borderopacity="1"
     objecttolerance="10"
     gridtolerance="10"
     guidetolerance="10"
     inkscape:pageopacity="0"
     inkscape:pageshadow="2"
     inkscape:window-width="1366"
     inkscape:window-height="715"
     id="namedview26"
     showgrid="false"
     inkscape:zoom="1.1800291"
     inkscape:cx="457.49705"
     inkscape:cy="102.15888"
     inkscape:window-x="0"
     inkscape:window-y="0"
     inkscape:window-maximized="1"
     inkscape:current-layer="SVGRoot"
     inkscape:document-rotation="0" />
  <defs
     id="defs284" />
  <metadata
     id="metadata287">
    <rdf:RDF>
      <cc:Work
         rdf:about="">
        <dc:format>image/svg+xml</dc:format>
        <dc:type
           rdf:resource="http://purl.org/dc/dcmitype/StillImage" />
        <dc:title />
      </cc:Work>
    </rdf:RDF>
  </metadata>
  <path
     id="text1174-3"
     style="font-style:normal;font-weight:normal;font-size:48px;line-height:1.25;font-family:sans-serif;letter-spacing:0px;word-spacing:0px;fill:#ffffff;fill-opacity:1;stroke:none;stroke-width:1.5101"
     d="m 127.96392,125.10283 v 26.55818 c 0.16048,0.11469 0.45862,0.25157 0.89437,0.41219 0.43571,0.13754 0.94025,0.27623 1.5137,0.41385 0.59612,0.13765 1.23761,0.25202 1.92553,0.34379 0.68798,0.1147 1.38749,0.17101 2.09852,0.17101 1.44472,0 2.75182,-0.25134 3.92143,-0.75593 1.16962,-0.52748 2.16729,-1.24951 2.99304,-2.16687 0.82548,-0.91731 1.46868,-2.01809 1.92751,-3.30241 0.45851,-1.28429 0.68743,-2.69632 0.68743,-4.23289 0,-1.51361 -0.19497,-2.832 -0.58501,-3.95576 -0.3669,-1.12373 -0.89389,-2.06323 -1.58176,-2.8201 -0.68804,-0.75686 -1.49065,-1.31943 -2.40807,-1.68637 -0.8945,-0.36694 -1.85831,-0.5507 -2.89042,-0.5507 -0.75681,0 -1.43379,0.0785 -2.03001,0.24115 -0.59617,0.13764 -1.13456,0.32139 -1.61617,0.55073 -0.45856,0.20644 -0.85999,0.44648 -1.20385,0.72176 -0.34415,0.25223 -0.64229,0.50534 -0.89459,0.75759 l 0.10258,-2.82014 v -7.87908 z m -7.94747,0.48249 c -0.27537,0 -0.54905,0.06 -0.82443,0.17095 -0.25219,0.1146 -0.48281,0.27577 -0.68925,0.48218 -0.18352,0.18345 -0.34286,0.41227 -0.48059,0.68757 -0.11459,0.25231 -0.1726,0.53906 -0.1726,0.86021 0,0.61921 0.18372,1.1124 0.55063,1.47932 0.3669,0.34403 0.81343,0.51663 1.3407,0.51663 0.57343,0 1.07799,-0.20645 1.51374,-0.61909 0.43576,-0.43576 0.65498,-0.98703 0.65498,-1.65225 0,-0.52744 -0.16119,-0.97386 -0.48235,-1.3408 -0.29804,-0.38986 -0.76865,-0.58472 -1.41083,-0.58472 z m -90.713814,1.82291 V 152.7264 H 32.2272 v -8.08419 l 3.782937,-4.26531 c 0.481614,0.73392 1.02165,1.55904 1.61794,2.4764 0.619212,0.89441 1.238067,1.81326 1.857281,2.75353 0.642148,0.94027 1.249746,1.86857 1.823101,2.78592 0.573336,0.89447 1.077792,1.71956 1.513534,2.47637 0.298145,0.50454 0.504431,0.89467 0.619101,1.16981 0.137605,0.25227 0.276324,0.48109 0.413926,0.68747 h 3.40503 c -0.02249,-0.0716 -0.09206,-0.1832 -0.206965,-0.34365 -0.114667,-0.18347 -0.229077,-0.37851 -0.34374,-0.58499 -0.114674,-0.20637 -0.229077,-0.39014 -0.343742,-0.55071 -0.09157,-0.16046 -0.161105,-0.2749 -0.206969,-0.34367 -0.344013,-0.59634 -0.745323,-1.26024 -1.204002,-1.99409 -0.458671,-0.75684 -0.951869,-1.52565 -1.479349,-2.30544 -0.527473,-0.80267 -1.065715,-1.6053 -1.616123,-2.40797 -0.527483,-0.82562 -1.043196,-1.60572 -1.547744,-2.33959 -0.50454,-0.73392 -0.975221,-1.42215 -1.410955,-2.06427 -0.435751,-0.64217 -0.778967,-1.18039 -1.03124,-1.61616 l 8.978695,-10.76763 H 43.30432 l -11.07712,13.5536 v -13.5536 z m 76.334084,6.08852 c -0.73395,0 -1.47843,0.0776 -2.23501,0.24114 -0.75681,0.16042 -1.44517,0.34419 -2.06435,0.55069 -0.59624,0.18344 -1.12329,0.37851 -1.581942,0.58484 -0.435735,0.20639 -0.745169,0.36584 -0.928637,0.4806 l 0.721678,2.09844 c 0.252272,-0.16062 0.584221,-0.33133 0.997071,-0.5148 0.43575,-0.18346 0.89503,-0.3559 1.37675,-0.51652 0.48177,-0.16051 0.99721,-0.28619 1.5477,-0.37786 0.55051,-0.0876 1.05478,-0.13856 1.51353,-0.13856 0.71097,0 1.32981,0.0622 1.85736,0.17273 0.55028,0.0876 0.99867,0.27553 1.34233,0.55066 0.34445,0.25229 0.60863,0.60674 0.79214,1.0655 0.18351,0.43574 0.27346,1.00953 0.27346,1.72045 v 1.92571 c -0.68813,0 -1.4549,0.0386 -2.30376,0.10435 -0.82521,0.0498 -1.66381,0.14903 -2.51206,0.30956 -0.82591,0.16057 -1.63973,0.38935 -2.44239,0.68749 -0.77969,0.29813 -1.47919,0.67694 -2.098391,1.13561 -0.596276,0.45868 -1.089477,1.0325 -1.479351,1.72049 -0.36694,0.66511 -0.548906,1.45649 -0.548906,2.37381 0,0.82564 0.136924,1.57017 0.412131,2.23528 0.298135,0.66499 0.699457,1.22759 1.203996,1.68628 0.527481,0.45863 1.135121,0.8131 1.823111,1.06538 0.71081,0.22938 1.49101,0.34383 2.33983,0.34383 0.64175,0 1.26057,-0.0723 1.85726,-0.20525 0.59597,-0.11463 1.14545,-0.26467 1.65017,-0.44813 0.50472,-0.20634 0.94159,-0.42395 1.30845,-0.65323 0.38981,-0.25228 0.72154,-0.48107 0.99713,-0.68755 v 1.71871 h 2.75134 v -13.17551 c 0,-1.21554 -0.15915,-2.21318 -0.48042,-2.99297 -0.29795,-0.77965 -0.73481,-1.39852 -1.30844,-1.8573 -0.57336,-0.45855 -1.26147,-0.76799 -2.06418,-0.92865 -0.80269,-0.18346 -1.70854,-0.27522 -2.7176,-0.27522 z m 49.26317,0 c -0.73387,0 -1.4802,0.0776 -2.23703,0.24114 -0.75674,0.16042 -1.44489,0.34419 -2.0641,0.55069 -0.59644,0.18344 -1.12329,0.37851 -1.58209,0.58484 -0.43573,0.20639 -0.74516,0.36584 -0.92865,0.4806 l 0.7218,2.09844 c 0.25219,-0.16062 0.58591,-0.33133 0.99877,-0.5148 0.43571,-0.18346 0.89337,-0.3559 1.3749,-0.51652 0.48165,-0.16051 0.99739,-0.28619 1.54776,-0.37786 0.55041,-0.0876 1.05488,-0.13856 1.5137,-0.13856 0.71079,0 1.33146,0.0622 1.85905,0.17273 0.5504,0.0876 0.99675,0.27553 1.34072,0.55066 0.34398,0.25229 0.60836,0.60674 0.79183,1.0655 0.18346,0.43574 0.27544,1.00953 0.27544,1.72045 v 1.92571 c -0.68803,0 -1.45696,0.0386 -2.30547,0.10435 -0.82565,0.0498 -1.66201,0.14903 -2.51048,0.30956 -0.82573,0.16057 -1.64145,0.38935 -2.44413,0.68749 -0.77959,0.29813 -1.47919,0.67694 -2.0984,1.13561 -0.59616,0.45868 -1.0894,1.0325 -1.47931,1.72049 -0.36691,0.66511 -0.54891,1.45649 -0.54891,2.37381 0,0.82564 0.137,1.57017 0.41204,2.23528 0.29814,0.66499 0.69956,1.22759 1.20417,1.68628 0.52728,0.45863 1.13492,0.8131 1.82291,1.06538 0.7111,0.22938 1.49105,0.34383 2.33964,0.34383 0.64216,0 1.26105,-0.0723 1.85727,-0.20525 0.5964,-0.11463 1.14767,-0.26467 1.65223,-0.44813 0.50453,-0.20634 0.93956,-0.42395 1.30656,-0.65323 0.38978,-0.25228 0.72184,-0.48107 0.99696,-0.68755 v 1.71871 h 2.75179 v -13.17551 c 0,-1.21554 -0.15944,-2.21318 -0.4805,-2.99297 -0.29815,-0.77965 -0.73506,-1.39852 -1.30837,-1.8573 -0.5734,-0.45855 -1.25988,-0.76799 -2.06254,-0.92865 -0.80268,-0.18346 -1.70838,-0.27522 -2.71756,-0.27522 z m -103.993654,0.27522 v 11.1114 c 0,1.21545 0.05825,2.31629 0.172773,3.30244 0.137602,0.98617 0.400192,1.83562 0.790065,2.54656 0.412811,0.71096 0.975372,1.27176 1.686319,1.68449 0.733878,0.38996 1.720279,0.58499 2.958704,0.58499 0.527474,0 1.088237,-0.0605 1.684517,-0.17101 0.596272,-0.11471 1.18136,-0.26463 1.754696,-0.44809 0.57335,-0.20647 1.124648,-0.44653 1.652131,-0.72174 0.550409,-0.27519 1.043604,-0.55087 1.479351,-0.82601 v 0.92864 c 0,0.52741 0.114399,0.84813 0.343739,0.96276 0.252268,0.13766 0.606745,0.20706 1.065422,0.20706 h 1.203994 v -19.16149 h -2.9587 v 15.06713 c -0.252272,0.20642 -0.572963,0.41265 -0.962839,0.6191 -0.389873,0.18347 -0.813713,0.36719 -1.272386,0.55067 -0.435737,0.16057 -0.906419,0.29927 -1.410965,0.41396 -0.481604,0.0876 -0.950482,0.13675 -1.40916,0.13675 -0.688012,0 -1.284357,-0.0714 -1.7889,-0.20695 -0.481605,-0.13755 -0.882922,-0.41147 -1.203994,-0.82425 -0.29814,-0.41278 -0.51749,-0.97535 -0.655092,-1.68634 -0.114668,-0.73387 -0.170971,-1.69774 -0.170971,-2.89028 v -11.17979 z m 18.508089,0 5.915607,19.26398 h 2.787728 l 3.782965,-13.65603 0.550707,-2.51066 0.516514,2.51066 3.887342,13.65603 h 2.683354 l 5.881409,-19.26398 H 92.56563 l -3.5436,12.79773 -0.755874,3.09548 -0.723477,-3.1639 -3.611996,-12.72931 h -2.924506 l -3.577798,12.72931 -0.653291,3.09554 -0.755872,-3.09554 -3.646191,-12.72931 z m 49.054345,0.0371 v 18.92008 h 2.92465 v -18.92044 z m 17.19971,2.02998 c 1.74303,0 3.06319,0.59628 3.95745,1.78886 0.89463,1.1926 1.32967,2.95905 1.30665,5.29833 0,1.30721 -0.17236,2.46433 -0.51656,3.47339 -0.32106,0.98617 -0.77863,1.81315 -1.37484,2.47822 -0.57337,0.6651 -1.23907,1.16955 -1.99586,1.51352 -0.73384,0.32106 -1.51412,0.48053 -2.33964,0.48053 -0.87141,0 -1.66296,-0.0724 -2.3738,-0.20695 -0.68808,-0.16056 -1.19256,-0.36683 -1.51363,-0.6191 v -12.38409 c 0.48171,-0.3898 1.1474,-0.79122 1.99586,-1.20396 0.87147,-0.41275 1.82245,-0.6191 2.85437,-0.6191 z m -26.41958,7.39672 v 5.98579 c -0.11448,0.11467 -0.3211,0.26288 -0.61912,0.44635 -0.29791,0.1605 -0.65239,0.33303 -1.06556,0.5165 -0.41266,0.16055 -0.88323,0.30871 -1.41091,0.4463 -0.5272,0.11468 -1.06571,0.1728 -1.61619,0.1728 -1.32976,0 -2.29394,-0.30943 -2.8901,-0.92865 -0.57341,-0.61921 -0.86022,-1.41058 -0.86022,-2.37379 0,-0.96323 0.30947,-1.72084 0.92875,-2.27124 0.61921,-0.57335 1.36554,-0.99719 2.23712,-1.27238 0.89396,-0.29812 1.82229,-0.49314 2.78585,-0.58492 0.98621,-0.0876 1.82225,-0.13676 2.51038,-0.13676 z m 49.26319,0 v 5.98579 c -0.11466,0.11467 -0.32102,0.26288 -0.6191,0.44635 -0.29812,0.1605 -0.65449,0.33303 -1.06729,0.5165 -0.41272,0.16055 -0.88352,0.30871 -1.41087,0.4463 -0.5276,0.11468 -1.06582,0.1728 -1.61619,0.1728 -1.33019,0 -2.29406,-0.30943 -2.89023,-0.92865 -0.5734,-0.61921 -0.86035,-1.41058 -0.86035,-2.37379 0,-0.96323 0.30941,-1.72084 0.92861,-2.27124 0.61921,-0.57335 1.36556,-0.99719 2.23703,-1.27238 0.89446,-0.29812 1.82279,-0.49314 2.78592,-0.58492 0.98616,-0.0876 1.82444,-0.13676 2.51247,-0.13676 z m -56.4205,11.19709 v 9.86415 h 0.94677 v -1.32628 l -0.0267,-1.05642 1.08183,-1.08168 2.46876,3.46438 h 1.14284 l -2.93672,-4.12666 2.65412,-2.62943 h -1.18048 l -3.23035,3.27908 0.0267,-0.736 v -5.65117 z m -72.463068,0.7361 c -0.565178,0 -1.10114,0.098 -1.608931,0.29515 -0.49963,0.18839 -0.936982,0.47527 -1.313815,0.86029 -0.36857,0.38491 -0.664308,0.86454 -0.885468,1.43799 -0.221111,0.56508 -0.335477,1.22432 -0.343646,1.97777 -0.0089,0.67986 0.07491,1.30555 0.246469,1.87899 0.180196,0.57325 0.442491,1.06882 0.786541,1.48643 0.343946,0.40954 0.761121,0.73434 1.252572,0.97183 0.499626,0.22947 1.060242,0.33492 1.682668,0.31858 0.581541,-0.009 1.110503,-0.11376 1.58557,-0.31858 0.483262,-0.20468 0.904786,-0.50041 1.265175,-0.88542 0.360389,-0.39311 0.642888,-0.87281 0.847679,-1.43798 0.212953,-0.57327 0.327333,-1.2369 0.343753,-1.99043 0.01658,-0.6962 -0.06437,-1.32626 -0.244778,-1.89147 -0.180191,-0.56519 -0.439864,-1.04746 -0.77566,-1.44873 -0.33585,-0.40141 -0.74418,-0.70854 -1.227385,-0.92151 -0.475095,-0.22111 -1.012857,-0.33291 -1.610744,-0.33291 z m 29.78138,0.0818 v 9.0417 h 0.921456 v -5.76082 l -0.06161,-1.96705 0.934051,1.5855 4.078109,6.14239 h 0.910656 v -9.04158 h -0.910553 v 5.92097 l 0.06309,1.84292 -0.836862,-1.47399 -4.164495,-6.28988 z m 52.043778,0 v 9.0417 h 1.00753 v -9.04169 z m -81.861158,0.67494 c 0.48322,0 0.900408,0.098 1.252615,0.29515 0.360379,0.19656 0.660481,0.46773 0.898041,0.81167 0.245697,0.34403 0.429616,0.74535 0.552479,1.20406 0.122885,0.45858 0.183598,0.9497 0.183598,1.47385 -0.01658,1.26959 -0.298907,2.23591 -0.84767,2.89931 -0.540584,0.66347 -1.260495,0.99964 -2.16146,1.00791 -0.491396,0 -0.926211,-0.10298 -1.302977,-0.30776 -0.368561,-0.2048 -0.680153,-0.47846 -0.934002,-0.82243 -0.245771,-0.35221 -0.429674,-0.75791 -0.552556,-1.21668 -0.122823,-0.46682 -0.18351,-0.95793 -0.18351,-1.47391 0,-0.65522 0.0765,-1.22019 0.232153,-1.69531 0.163752,-0.47511 0.3856,-0.8763 0.664062,-1.204 0.286643,-0.32769 0.614085,-0.56966 0.982647,-0.72525 0.376737,-0.16389 0.782488,-0.24661 1.21658,-0.24661 z m 46.317011,0.0547 c -0.03316,0.0976 -0.06033,0.2127 -0.0846,0.34379 l -0.07409,0.39232 c -0.02427,0.12281 -0.04923,0.2417 -0.07408,0.3564 -0.02427,0.10639 -0.04503,0.18475 -0.06161,0.23387 -0.02427,0.0742 -0.07416,0.13192 -0.147578,0.17286 -0.07401,0.0444 -0.160867,0.0728 -0.259155,0.096 -0.09052,0.0267 -0.19128,0.0534 -0.305949,0.0745 -0.106476,0.0178 -0.213867,0.0445 -0.320344,0.0741 v 0.55254 h 0.934057 v 4.41115 c 0,0.36853 0.04032,0.66426 0.122378,0.88541 0.09051,0.22108 0.201897,0.39179 0.332946,0.51464 0.139241,0.12292 0.302932,0.20571 0.491316,0.24666 0.196576,0.0444 0.396333,0.0648 0.601099,0.0648 0.147429,0 0.306719,-0.0172 0.478719,-0.0527 0.180193,-0.0355 0.352702,-0.0751 0.516514,-0.12414 0.163812,-0.0617 0.316086,-0.11816 0.455323,-0.18357 0.139243,-0.0707 0.249241,-0.13516 0.331147,-0.2088 l -0.172758,-0.56496 c -0.05742,0.0356 -0.133873,0.0716 -0.232158,0.10972 -0.09828,0.0444 -0.210085,0.0776 -0.332942,0.11156 -0.122862,0.0356 -0.244282,0.0656 -0.367141,0.0818 -0.122857,0.0178 -0.239063,0.0254 -0.345541,0.0254 -0.163813,0 -0.302865,-0.0124 -0.417531,-0.0391 -0.11467,-0.0267 -0.208838,-0.0826 -0.282551,-0.1854 -0.06511,-0.0976 -0.114816,-0.24431 -0.147576,-0.44089 -0.03316,-0.19657 -0.04875,-0.46326 -0.04875,-0.79912 v -3.85861 h 2.100249 v -0.74862 h -2.100192 v -1.54774 z m 68.395727,0 c -0.0357,0.0976 -0.0647,0.2127 -0.0804,0.34379 l -0.0747,0.39232 c -0.0267,0.12281 -0.0534,0.2417 -0.0743,0.3564 -0.0267,0.10639 -0.0506,0.18475 -0.0668,0.23387 -0.0267,0.0742 -0.0731,0.13192 -0.14584,0.17286 -0.0734,0.0444 -0.16069,0.0728 -0.259,0.096 -0.0858,0.0267 -0.19144,0.0534 -0.3061,0.0745 -0.10646,0.0178 -0.21374,0.0445 -0.32034,0.0741 v 0.55254 h 0.93421 v 4.41115 c 0,0.36853 0.0439,0.66426 0.12223,0.88541 0.0858,0.22108 0.20014,0.39179 0.33123,0.51464 0.13931,0.12292 0.30467,0.20571 0.49309,0.24666 0.19662,0.0444 0.39626,0.0648 0.60113,0.0648 0.14732,0 0.30662,-0.0172 0.47873,-0.0527 0.18009,-0.0355 0.35274,-0.0751 0.51639,-0.12414 0.16389,-0.0617 0.31626,-0.11816 0.45548,-0.18357 0.13913,-0.0707 0.2491,-0.13516 0.33098,-0.2088 l -0.17266,-0.56506 c -0.0614,0.0356 -0.13397,0.0716 -0.23225,0.10972 -0.0976,0.0444 -0.21009,0.077 -0.33278,0.11155 -0.12301,0.0356 -0.24625,0.0656 -0.36906,0.0819 -0.12276,0.0178 -0.23714,0.0254 -0.34381,0.0254 -0.16378,0 -0.30272,-0.0124 -0.4175,-0.0391 -0.11466,-0.0267 -0.20871,-0.0826 -0.28255,-0.1854 -0.0707,-0.0976 -0.11483,-0.24431 -0.1475,-0.44089 -0.0356,-0.19657 -0.0527,-0.46326 -0.0527,-0.79912 v -3.8586 h 2.1003 V 157.522 h -2.10022 v -1.54777 z m -91.455251,1.44869 c -0.237524,0.009 -0.483967,0.05 -0.737875,0.11161 -0.245718,0.0622 -0.478936,0.13393 -0.70008,0.23221 -0.21296,0.0976 -0.41272,0.20562 -0.6011,0.32031 -0.180192,0.11467 -0.332467,0.21776 -0.455327,0.30773 v -0.86033 h -0.88545 v 6.75609 h 0.995233 v -5.22095 c 0.131049,-0.0976 0.278911,-0.19245 0.442729,-0.28254 0.163811,-0.0976 0.33191,-0.18798 0.503915,-0.2699 0.172001,-0.0792 0.348918,-0.14709 0.52911,-0.1962 0.180193,-0.0533 0.348293,-0.0738 0.503917,-0.0738 0.286668,-0.0178 0.522497,0.0118 0.710879,0.0807 0.188383,0.0707 0.336246,0.173 0.442724,0.3203 0.114669,0.14757 0.188602,0.34471 0.221363,0.5903 0.04084,0.23758 0.06161,0.52007 0.06161,0.84767 v 4.20058 h 1.007825 v -4.18796 c 0,-0.49952 -0.0358,-0.92284 -0.10978,-1.26697 -0.07399,-0.34391 -0.19253,-0.62207 -0.356341,-0.83499 -0.163813,-0.21294 -0.376794,-0.3635 -0.638893,-0.45346 -0.253908,-0.0858 -0.565465,-0.13249 -0.934043,-0.12423 z m 65.496211,0 c -0.23745,0.009 -0.48373,0.05 -0.73762,0.11161 -0.2459,0.0622 -0.47891,0.13393 -0.70027,0.23221 -0.21286,0.0976 -0.41421,0.20562 -0.60299,0.32031 -0.17999,0.11467 -0.33033,0.21776 -0.45339,0.30773 v -0.86028 h -0.88554 v 6.75611 h 0.99548 v -5.22098 c 0.13082,-0.0976 0.27901,-0.19245 0.44244,-0.28254 0.16404,-0.0976 0.33217,-0.18797 0.504,-0.26989 0.17194,-0.0795 0.34737,-0.14709 0.52754,-0.19621 0.17996,-0.0533 0.34799,-0.0744 0.50368,-0.0744 0.28694,-0.0178 0.52458,0.0118 0.71277,0.0807 0.18831,0.069 0.33633,0.173 0.44272,0.3203 0.11485,0.14756 0.18871,0.34471 0.22129,0.59031 0.0444,0.23758 0.0656,0.52007 0.0656,0.84767 v 4.20058 h 1.00753 v -4.18795 c 0,-0.49948 -0.0411,-0.92284 -0.11155,-1.26697 -0.0748,-0.34389 -0.19226,-0.62207 -0.35625,-0.83497 -0.16387,-0.21293 -0.37691,-0.36351 -0.63872,-0.45348 -0.25391,-0.0858 -0.56367,-0.13249 -0.93245,-0.12422 z m 20.99545,0 c -0.23758,0.009 -0.48205,0.05 -0.73598,0.11161 -0.24589,0.0622 -0.47896,0.13393 -0.70017,0.23221 -0.21289,0.0976 -0.41458,0.20562 -0.60294,0.32031 -0.18023,0.11467 -0.33058,0.21776 -0.45347,0.30773 v -0.86028 h -0.88547 v 6.75611 h 0.99532 v -5.22098 c 0.13095,-0.0976 0.27877,-0.19245 0.44256,-0.28254 0.16399,-0.0976 0.3321,-0.18797 0.504,-0.26989 0.17193,-0.0795 0.34714,-0.14709 0.52725,-0.19621 0.18018,-0.0533 0.34827,-0.0744 0.5039,-0.0744 0.28674,-0.0178 0.5243,0.0118 0.71282,0.0807 0.18825,0.069 0.3363,0.173 0.44258,0.3203 0.11469,0.14756 0.18879,0.34471 0.22141,0.59031 0.0444,0.23758 0.0647,0.52007 0.0647,0.84767 v 4.20058 h 1.00786 v -4.18795 c 0,-0.49948 -0.0411,-0.92284 -0.1116,-1.26697 -0.0742,-0.34389 -0.19254,-0.62207 -0.35626,-0.83497 -0.16391,-0.21293 -0.37684,-0.36351 -0.63899,-0.45348 -0.25389,-0.0858 -0.56548,-0.13249 -0.934,-0.12422 z m -101.099796,0.0137 c -0.294875,0 -0.557139,0.0315 -0.786481,0.0822 -0.221142,0.0614 -0.418291,0.13576 -0.590282,0.23403 -0.172016,0.0858 -0.318069,0.18683 -0.440945,0.2933 -0.122858,0.0976 -0.225837,0.18987 -0.307733,0.27181 V 157.525 h -0.896261 v 9.77954 h 0.982633 v -2.18669 l -0.01247,-0.95922 c 0.155632,0.0688 0.343972,0.11933 0.565119,0.16028 0.229341,0.0533 0.482793,0.0734 0.76127,0.0734 0.515993,0 0.982438,-0.0854 1.400155,-0.2699 0.417727,-0.18849 0.774162,-0.4463 1.069023,-0.77388 0.294864,-0.3277 0.521064,-0.71751 0.676693,-1.16799 0.163802,-0.45878 0.244758,-0.95423 0.244758,-1.48665 0,-0.57333 -0.07424,-1.06438 -0.221368,-1.47394 -0.147427,-0.40954 -0.347185,-0.74571 -0.601099,-1.0078 -0.245715,-0.27026 -0.528222,-0.46557 -0.847655,-0.58852 -0.319435,-0.12289 -0.651236,-0.18534 -0.995229,-0.18534 z m 6.96662,0 c -0.483252,0 -0.913615,0.0815 -1.290377,0.25736 -0.376778,0.17203 -0.697145,0.41412 -0.959243,0.72533 -0.253905,0.3112 -0.449263,0.68085 -0.588502,1.10677 -0.131048,0.42598 -0.19797,0.89673 -0.19797,1.41282 0,1.08117 0.250855,1.92867 0.750479,2.5429 0.507816,0.60614 1.240926,0.90885 2.199223,0.90885 0.212957,0 0.430357,-0.0172 0.651501,-0.0527 0.22114,-0.0267 0.434119,-0.0716 0.638895,-0.12411 0.212946,-0.0616 0.405692,-0.12248 0.577692,-0.19614 0.172006,-0.0794 0.31105,-0.16731 0.417534,-0.25746 l -0.208764,-0.63879 c -0.09046,0.0611 -0.206304,0.11799 -0.345544,0.18356 -0.139243,0.0613 -0.294121,0.11105 -0.466118,0.16014 -0.163815,0.0533 -0.336321,0.0853 -0.516513,0.12239 -0.171998,0.0356 -0.335701,0.0547 -0.491316,0.0547 -0.417732,0 -0.769761,-0.0716 -1.056427,-0.19793 -0.286665,-0.13111 -0.519895,-0.31506 -0.700088,-0.55253 -0.171994,-0.2375 -0.295216,-0.51567 -0.368932,-0.83513 -0.06511,-0.31939 -0.09715,-0.66699 -0.09715,-1.04382 h 4.43445 c 0.02427,-0.13926 0.03742,-0.29593 0.03742,-0.46785 0.0089,-0.172 0.01052,-0.3604 0.01052,-0.56508 -0.0089,-0.39315 -0.07356,-0.74518 -0.196179,-1.05644 -0.122854,-0.31128 -0.290949,-0.57793 -0.503914,-0.79911 -0.204754,-0.22931 -0.453806,-0.40007 -0.748672,-0.51473 -0.294858,-0.12281 -0.62225,-0.18097 -0.982636,-0.17281 z m 25.823861,0 c -0.483246,0 -0.913618,0.0815 -1.290385,0.25736 -0.376766,0.17203 -0.69534,0.41412 -0.95744,0.72533 -0.253907,0.3112 -0.451062,0.68085 -0.590299,1.10677 -0.131049,0.42598 -0.196168,0.89673 -0.196168,1.41282 0,1.08117 0.24905,1.92867 0.748676,2.5429 0.507816,0.60614 1.24093,0.90885 2.199229,0.90885 0.212957,0 0.430342,-0.0172 0.65149,-0.0527 0.221143,-0.0267 0.434129,-0.0716 0.638894,-0.12411 0.212952,-0.0616 0.405698,-0.12248 0.577699,-0.19614 0.172006,-0.0794 0.311052,-0.16731 0.417532,-0.25746 l -0.208764,-0.63874 c -0.0905,0.0609 -0.204503,0.11799 -0.343742,0.18356 -0.139241,0.0613 -0.29412,0.11104 -0.466124,0.16014 -0.16381,0.0533 -0.336319,0.0853 -0.516511,0.12239 -0.172006,0.0356 -0.335694,0.0547 -0.491317,0.0547 -0.417722,0 -0.769751,-0.0713 -1.056421,-0.19794 -0.286674,-0.1311 -0.519892,-0.31505 -0.700086,-0.55253 -0.172001,-0.23749 -0.29522,-0.51566 -0.36894,-0.83512 -0.06511,-0.31939 -0.09899,-0.66699 -0.09899,-1.04382 h 4.436254 c 0.02427,-0.13926 0.03579,-0.29593 0.03579,-0.46785 0.0089,-0.172 0.01247,-0.3604 0.01247,-0.56509 -0.0089,-0.39314 -0.07356,-0.74517 -0.196163,-1.05643 -0.122865,-0.31128 -0.290963,-0.57793 -0.503915,-0.79911 -0.204771,-0.22931 -0.455618,-0.40007 -0.750474,-0.51473 -0.294865,-0.12281 -0.622251,-0.18097 -0.982636,-0.17281 z m 21.463187,0 c -0.434098,0 -0.835414,0.0743 -1.203993,0.22144 -0.368577,0.13923 -0.691556,0.35223 -0.970036,0.6388 -0.270292,0.28671 -0.487685,0.63875 -0.651491,1.05642 -0.163814,0.41779 -0.249167,0.89306 -0.257359,1.42537 0,0.47505 0.04924,0.93453 0.147577,1.37676 0.106476,0.4341 0.278982,0.8178 0.516512,1.15361 0.245716,0.32764 0.555474,0.5899 0.932241,0.78647 0.376771,0.19658 0.831784,0.29516 1.36417,0.29516 0.442293,0 0.848022,-0.0737 1.216597,-0.22138 0.368576,-0.15562 0.687149,-0.37737 0.957438,-0.66408 0.270291,-0.28657 0.483272,-0.6386 0.638896,-1.05643 0.163812,-0.42585 0.250963,-0.90811 0.259153,-1.44876 0.0089,-0.48318 -0.04577,-0.93821 -0.16017,-1.36415 -0.106479,-0.4341 -0.278988,-0.81517 -0.516516,-1.14284 -0.237526,-0.32752 -0.544678,-0.58544 -0.921445,-0.77385 -0.376765,-0.18829 -0.827372,-0.28254 -1.351574,-0.28254 z m 7.605498,0 c -0.221121,0 -0.438509,0.0363 -0.651467,0.0986 -0.212954,0.0691 -0.412712,0.15098 -0.601097,0.25738 -0.188382,0.0976 -0.356488,0.20826 -0.503915,0.33117 -0.139242,0.11463 -0.242225,0.21763 -0.307748,0.30781 l -0.06161,-0.89636 h -0.847615 v 6.75605 h 0.995245 v -5.20832 c 0.09047,-0.0858 0.195687,-0.17541 0.318541,-0.25728 0.122859,-0.0858 0.26371,-0.17735 0.419332,-0.25924 0.15562,-0.0786 0.319314,-0.14699 0.491317,-0.19616 0.180193,-0.0533 0.368525,-0.0752 0.565101,-0.0752 0.253906,0 0.437846,0.0172 0.552556,0.0528 0.11468,0.0357 0.20446,0.0702 0.26998,0.0986 v -0.9341 c -0.12282,-0.0533 -0.33585,-0.075 -0.63896,-0.075 z m 31.59907,0 c -0.48309,0 -0.91362,0.0815 -1.2904,0.25736 -0.37666,0.17203 -0.69528,0.41412 -0.95744,0.72533 -0.25391,0.3112 -0.45107,0.68085 -0.59034,1.10677 -0.131,0.42598 -0.19613,0.89673 -0.19613,1.41282 0,1.08117 0.24905,1.92867 0.74884,2.5429 0.50782,0.60614 1.24089,0.90885 2.19916,0.90885 0.2129,0 0.43026,-0.0172 0.65139,-0.0527 0.22125,-0.0267 0.43417,-0.0716 0.639,-0.12411 0.21302,-0.0616 0.40561,-0.12248 0.57774,-0.19614 0.17198,-0.0794 0.31106,-0.16731 0.41739,-0.25746 l -0.20875,-0.63883 c -0.0858,0.0609 -0.20444,0.11798 -0.34372,0.18355 -0.13927,0.0614 -0.29414,0.11105 -0.46607,0.16014 -0.16391,0.0533 -0.33638,0.0853 -0.51661,0.12239 -0.17194,0.0356 -0.33569,0.0547 -0.49131,0.0547 -0.41757,0 -0.76961,-0.0713 -1.05642,-0.19793 -0.28657,-0.13111 -0.51989,-0.31506 -0.70003,-0.55253 -0.17206,-0.23751 -0.2952,-0.51567 -0.36899,-0.83513 -0.0692,-0.31939 -0.0986,-0.66698 -0.0986,-1.04382 h 4.43625 c 0.0267,-0.13927 0.0391,-0.29593 0.0391,-0.46784 0.009,-0.17201 0.0137,-0.36041 0.0137,-0.5651 -0.009,-0.39314 -0.0744,-0.74517 -0.19619,-1.05643 -0.1229,-0.31128 -0.29101,-0.57793 -0.50395,-0.7991 -0.20461,-0.22932 -0.45553,-0.40008 -0.75039,-0.51474 -0.29487,-0.12281 -0.62219,-0.18097 -0.98271,-0.1728 z m 19.60946,0 c -0.43408,0 -0.83705,0.0743 -1.20576,0.22144 -0.36859,0.13923 -0.69156,0.35223 -0.96993,0.6388 -0.2704,0.28671 -0.48772,0.63875 -0.65163,1.05642 -0.16363,0.41779 -0.24901,0.89306 -0.25732,1.42537 0,0.47505 0.0535,0.93453 0.14758,1.37676 0.10646,0.4341 0.27897,0.8178 0.51649,1.15361 0.24588,0.32764 0.55563,0.5899 0.93226,0.78647 0.37673,0.19658 0.8318,0.29516 1.36415,0.29516 0.44244,0 0.84814,-0.0737 1.21674,-0.22138 0.36851,-0.15562 0.68896,-0.37737 0.9592,-0.66408 0.2702,-0.28657 0.48315,-0.6386 0.63879,-1.05643 0.1639,-0.42585 0.24923,-0.90811 0.25747,-1.44876 0.009,-0.48318 -0.0494,-0.93821 -0.16027,-1.36415 -0.10637,-0.4341 -0.27899,-0.81517 -0.51651,-1.14284 -0.23741,-0.32752 -0.54457,-0.58544 -0.92143,-0.77385 -0.3768,-0.18829 -0.82559,-0.28254 -1.34983,-0.28254 z m 7.60376,0 c -0.22106,0 -0.43854,0.0363 -0.65147,0.0986 -0.21291,0.0691 -0.41264,0.15098 -0.60112,0.25738 -0.18833,0.0976 -0.35646,0.20826 -0.50386,0.33117 -0.13919,0.11463 -0.24227,0.21763 -0.30769,0.30781 l -0.0649,-0.89636 h -0.84754 v 6.75608 h 0.99526 v -5.20832 c 0.0858,-0.0858 0.19749,-0.17541 0.32028,-0.25728 0.12288,-0.0858 0.26194,-0.17735 0.41756,-0.25924 0.1556,-0.0787 0.31935,-0.14699 0.49132,-0.19616 0.18022,-0.0533 0.36851,-0.0751 0.56508,-0.0751 0.25392,0 0.43786,0.0172 0.5525,0.0527 0.11472,0.0356 0.20444,0.0693 0.27001,0.0986 v -0.93409 c -0.12288,-0.0533 -0.33583,-0.075 -0.63893,-0.075 z m -79.46559,0.0822 2.127241,6.88032 h 0.932241 l 1.38937,-4.97627 0.196164,-0.87285 0.172773,0.87285 1.41276,4.97627 h 0.908852 l 2.100246,-6.88031 h -0.957441 l -1.31558,4.68106 -0.257358,1.05643 -0.246557,-1.08159 -1.326378,-4.6559 H 83.60134 l -1.315581,4.6559 -0.219561,1.06902 -0.271753,-1.06902 -1.351576,-4.6559 z m 42.2892,0 2.71402,6.88032 h 0.8368 l 2.62936,-6.88032 h -1.05819 l -1.48658,4.20233 -0.50193,1.64486 -0.5293,-1.64486 -1.53513,-4.20233 z m 38.49205,0 2.54292,6.76871 h 0.28254 c -0.10645,0.43414 -0.23407,0.79487 -0.38152,1.08166 -0.13923,0.28661 -0.28969,0.50841 -0.45354,0.66404 -0.16377,0.1638 -0.33185,0.27825 -0.50391,0.34368 -0.172,0.0696 -0.34448,0.0986 -0.51645,0.0986 -0.0858,0 -0.19749,-0.0102 -0.32037,-0.0273 -0.11465,-0.0178 -0.20448,-0.035 -0.26993,-0.0527 v 0.8225 c 0.0178,0.0178 0.0541,0.0302 0.0986,0.0391 0.0609,0.009 0.11801,0.0185 0.18356,0.0273 0.074,0.009 0.14322,0.0137 0.20878,0.0137 0.0707,0.009 0.12358,0.0137 0.17275,0.0137 0.39314,0 0.73374,-0.0854 1.02039,-0.27005 0.28671,-0.17204 0.52694,-0.39824 0.72352,-0.6767 0.20474,-0.27031 0.37729,-0.57744 0.5165,-0.92142 0.14742,-0.33584 0.27504,-0.66317 0.38157,-0.98266 l 2.32159,-6.94142 h -1.06902 l -1.41279,4.64325 -0.39414,1.33897 -0.45351,-1.33897 -1.62151,-4.64325 z m -115.081684,0.61378 c 0.311237,0 0.569099,0.0622 0.773875,0.17274 0.204752,0.11465 0.368451,0.26953 0.491319,0.4661 0.122851,0.1966 0.203802,0.4298 0.244758,0.70016 0.04913,0.27023 0.06647,0.55708 0.05006,0.86021 h -3.5148 c 0.04084,-0.385 0.119289,-0.71675 0.233966,-0.9953 0.114658,-0.28658 0.258119,-0.51543 0.430116,-0.68749 0.172006,-0.17198 0.364749,-0.29959 0.577714,-0.38154 0.221151,-0.0858 0.458767,-0.13488 0.712683,-0.13488 z m 25.823856,0 c 0.311242,0 0.569105,0.0622 0.773873,0.17274 0.204764,0.11465 0.368459,0.26953 0.491317,0.4661 0.122855,0.1966 0.205604,0.4298 0.246554,0.70016 0.0491,0.27023 0.06453,0.55708 0.04881,0.86021 H 69.0186 c 0.04084,-0.385 0.117488,-0.71675 0.232157,-0.9953 0.114668,-0.28658 0.258127,-0.51543 0.430127,-0.68749 0.172004,-0.17198 0.364745,-0.29959 0.577708,-0.38154 0.221144,-0.0858 0.458767,-0.13488 0.712677,-0.13488 z m 60.667908,0 c 0.31121,0 0.56894,0.0622 0.77388,0.17274 0.20458,0.11465 0.3684,0.26953 0.49124,0.4661 0.12276,0.1966 0.20551,0.4298 0.24645,0.70016 0.0533,0.27023 0.069,0.55708 0.0527,0.86021 h -3.5131 c 0.0444,-0.385 0.11743,-0.71675 0.23221,-0.9953 0.11474,-0.28658 0.25815,-0.51543 0.43006,-0.68749 0.17196,-0.17198 0.3648,-0.29959 0.5777,-0.38154 0.22125,-0.0858 0.45891,-0.13488 0.7128,-0.13488 z m -39.154323,0.0137 c 0.344005,0 0.633526,0.0762 0.871051,0.23389 0.245719,0.14753 0.451686,0.34727 0.615499,0.60116 0.163813,0.24567 0.278217,0.5414 0.343743,0.8855 0.07401,0.3358 0.109782,0.69917 0.109782,1.09231 0,0.84362 -0.175118,1.51174 -0.527314,2.00318 -0.352196,0.48317 -0.852088,0.7208 -1.499148,0.71254 -0.344003,0 -0.644139,-0.0769 -0.898048,-0.23383 -0.245717,-0.16389 -0.449885,-0.37685 -0.613695,-0.63903 -0.155621,-0.26195 -0.27003,-0.56482 -0.343746,-0.90868 -0.074,-0.3522 -0.109781,-0.72012 -0.109781,-1.10517 0.0089,-0.85167 0.192122,-1.50659 0.552509,-1.96517 0.360386,-0.46691 0.860282,-0.69314 1.499148,-0.6767 z m 58.812243,0 c 0.34416,0 0.63352,0.0762 0.87106,0.23389 0.24586,0.14753 0.45167,0.34727 0.6156,0.60116 0.16374,0.24567 0.27824,0.5414 0.34364,0.8855 0.075,0.3358 0.10978,0.69917 0.10978,1.09231 0,0.84362 -0.17498,1.51174 -0.52717,2.00318 -0.3522,0.48317 -0.85224,0.7208 -1.4993,0.71254 -0.34383,0 -0.64231,-0.0769 -0.89623,-0.23383 -0.24567,-0.16389 -0.45168,-0.37685 -0.61535,-0.63903 -0.15562,-0.26195 -0.27011,-0.56482 -0.3439,-0.90868 -0.0739,-0.3522 -0.10974,-0.72012 -0.10974,-1.10517 0.009,-0.85167 0.19206,-1.50659 0.55262,-1.96517 0.36023,-0.46691 0.86024,-0.69314 1.49899,-0.6767 z m -113.325079,0.0647 c 0.606111,0 1.081354,0.21742 1.425362,0.65151 0.344004,0.42597 0.512107,1.08069 0.503914,1.96532 -0.0089,0.44225 -0.07073,0.8392 -0.185369,1.1914 -0.114667,0.35221 -0.273954,0.65231 -0.478717,0.89801 -0.204768,0.24579 -0.446803,0.43404 -0.725276,0.5651 -0.278476,0.12285 -0.581217,0.1836 -0.908847,0.1836 -0.360387,0 -0.65611,-0.0344 -0.885452,-0.0958 -0.229338,-0.0694 -0.400038,-0.14836 -0.514721,-0.24666 V 158.906 c 0.08169,-0.0699 0.183089,-0.13772 0.305956,-0.2196 0.122861,-0.0787 0.259306,-0.15584 0.406726,-0.22133 0.15562,-0.0742 0.319312,-0.13187 0.491322,-0.1728 0.180194,-0.0533 0.368523,-0.0743 0.565102,-0.0743 z" />
  <path
     class="st0"
     d="m 151.93545,53.219344 c 0,0 -6.4531,8.610818 -14.52326,12.682409 0,0 7.97312,10.408778 9.68744,15.713946 -0.009,0 6.0649,-11.827785 4.83582,-28.396355 z"
     id="path4"
     style="fill:#ffffff;stroke-width:0.807414" />
  <path
     class="st0"
     d="m 126.48755,59.84677 c 0,0 3.80059,3.499154 4.8437,5.111665 0,0 -1.23727,1.797952 -6.83323,3.031532 0,0 1.80336,-5.780863 1.98953,-8.143197 z"
     id="path6"
     style="fill:#ffffff;stroke-width:0.807414" />
  <path
     class="st0"
     d="m 63.639761,62.684794 c 0,0 2.563394,1.233571 7.593148,1.233571 0,0 3.509507,9.280017 6.266973,10.884466 0,0 -14.143144,-0.09669 -19.94111,-1.233572 0,0 4.180678,-9.368702 6.080989,-10.884465 z"
     id="path8"
     style="fill:#ffffff;stroke-width:0.807414" />
  <path
     class="st0"
     d="m 52.812047,77.076472 c 0,0 -1.706235,2.934778 -3.226484,10.884466 0,0 -5.983947,-8.328629 -5.983947,-13.158107 0,0 7.027096,2.176894 9.210431,2.273641 z"
     id="path10"
     style="fill:#ffffff;stroke-width:0.807414" />
  <path
     class="st0"
     d="m 67.343343,12.229261 c 0,0 -2.377411,15.334998 -2.280371,16.092879 h -14.43426 c 0,0 8.984013,-12.214785 16.714631,-16.092879 z"
     id="path12"
     style="fill:#ffffff;stroke-width:0.807414" />
  <path
     class="st0"
     d="m 92.880255,39.400106 c 0,0 -14.248271,7.52237 -14.781976,9.376762 0.743952,1.427074 1.164446,3.047654 1.164446,4.764978 0,3.845842 -2.102467,7.199869 -5.223825,8.997822 0.557961,1.548012 2.797894,7.183745 7.738701,12.271224 0,0 30.000829,-0.475691 38.645109,-5.966299 0,0 1.52024,-2.370392 3.32344,-11.739092 -0.009,-0.0087 -14.06222,-10.98928 -30.865895,-17.705395 z"
     id="path14"
     style="fill:#ffffff;stroke-width:0.807414" />
  <path
     class="st0"
     d="m 68.766554,42.842818 c 2.830246,0 5.401727,1.128759 7.277773,2.958964 1.924572,-1.394823 9.671362,-6.909616 12.566298,-7.820691 0,0 -14.143145,-4.829475 -20.507157,-4.926224 l 0.54179,9.787951 c 0.04028,0 0.08056,0 0.121296,0 z"
     id="path16"
     style="fill:#ffffff;stroke-width:0.807414" />
  <path
     class="st0"
     d="m 58.359335,53.219344 c 0,-4.434413 2.781725,-8.207696 6.703637,-9.699269 V 32.393732 c 0,0 -13.294073,-1.515758 -16.852095,0 0,0 -9.825005,12.87592 -5.652404,38.337501 0,0 9.873513,2.838026 11.579747,2.370394 0,0 5.191479,-10.078205 7.229261,-12.577601 -1.859875,-1.878577 -3.008146,-4.458597 -3.008146,-7.304682 z"
     id="path18"
     style="fill:#ffffff;stroke-width:0.807414" />
  <path
     class="st0"
     d="m 119.4036,21.718902 c 0.88974,-0.241884 1.81973,-0.378944 2.7818,-0.378944 5.15922,0 9.43688,3.741025 10.26163,8.651134 2.36934,0.249936 10.60951,1.169069 12.55032,2.297829 0,0 -12.2511,-24.2360734 -41.96039,-27.9287267 0,0 13.29383,12.8759207 15.85718,17.4151407 0,0.0163 0.18603,-0.01631 0.50946,-0.05645 z"
     id="path20"
     style="fill:#ffffff;stroke-width:0.807414" />
  <path
     class="st0"
     d="M 115.95909,23.387847 C 113.6543,17.760175 97.246922,3.8280617 97.246922,3.8280617 87.373401,2.5299886 71.710008,9.7701741 71.710008,9.7701741 69.8097,11.003746 68.103468,29.273522 68.103468,29.273522 c 5.126786,0.282186 25.067896,6.530677 25.067896,6.530677 0.44475,-0.798192 16.560816,-5.208419 18.744256,-5.80505 0.44475,-2.692901 1.93292,-5.039103 4.04347,-6.611302 z"
     id="path22"
     style="fill:#ffffff;stroke-width:0.807414" />
  <path
     class="st0"
     d="m 147.75479,37.02971 c 0,0 -4.5041,-2.805774 -15.37238,-3.305653 -0.25056,1.273882 -0.73592,2.467147 -1.41512,3.531403 -0.68739,1.290011 -1.73053,2.588089 -3.29122,3.265343 -0.1698,0.104805 -0.3396,0.209626 -0.51759,0.306372 l 0.46926,15.036687 c 0,0 5.98386,5.49061 7.5041,7.38531 0,0 10.06749,-4.635973 15.85738,-15.43175 -0.009,0.0087 -2.19126,-8.796262 -3.23443,-10.787712 z"
     id="path24"
     style="fill:#ffffff;stroke-width:0.807414" />
  <path
     class="st0"
     d="m 122.1854,42.101062 c -5.0379,0 -9.24285,-3.571717 -10.2051,-8.312507 -9.63078,1.701204 -14.264364,4.007102 -14.264364,4.007102 11.959614,4.635967 26.014124,15.149557 26.014124,15.149557 V 41.996248 c -0.50154,0.06418 -1.01914,0.104814 -1.54466,0.104814 z"
     id="path26"
     style="fill:#ffffff;stroke-width:0.807414" />
  <path
     class="st0"
     d="m 113.10448,97.708581 c -0.0724,0.08905 -0.14558,0.161252 -0.21854,0.249942 -1.81947,3.039607 -5.14294,5.071267 -8.94357,5.071267 -2.86244,0 -5.458229,-1.1529 -7.342364,-3.02338 -16.148577,7.91748 -25.941231,8.19964 -25.941231,8.19964 9.493457,5.86954 20.030063,6.67572 34.844475,5.67596 14.81405,-0.99153 27.72008,-13.25477 27.72008,-13.25477 -10.90861,0.49181 -20.11885,-2.918659 -20.11885,-2.918659 z"
     id="path28"
     style="fill:#ffffff;stroke-width:0.807414" />
  <path
     class="st0"
     d="m 134.08052,67.989967 c -2.56338,1.99145 -11.49064,4.168342 -11.49064,4.168342 -1.18899,4.329598 -8.48289,12.988793 -9.97864,14.738369 1.10779,1.652826 1.75465,3.636219 1.75465,5.772803 0,0.653067 -0.0694,1.290001 -0.17783,1.902761 10.32624,2.749335 22.64186,2.386518 22.64186,2.386518 4.08376,-3.120213 7.91664,-10.505522 7.91664,-10.505522 0.6146,-6.820929 -10.66605,-18.463271 -10.66604,-18.463271 z"
     id="path30"
     style="fill:#ffffff;stroke-width:0.807414" />
  <path
     class="st0"
     d="m 95.653891,86.203299 c 1.908402,-2.386521 4.843759,-3.918407 8.143239,-3.918407 2.5145,0 4.82754,0.894947 6.63087,2.378457 0.74384,-0.830447 6.70343,-7.530435 7.42304,-11.086028 0,0 -9.68737,4.829479 -32.846959,4.547286 0,0 8.256236,7.85294 10.067591,8.610821 -0.0088,-0.0088 0.202161,-0.217691 0.582219,-0.532129 z"
     id="path32"
     style="fill:#ffffff;stroke-width:0.807414" />
  <path
     class="st0"
     d="m 93.559514,92.443726 c 0,-0.959446 0.13747,-1.894702 0.380063,-2.773526 C 87.341055,86.380675 80.257354,77.640855 80.257354,77.640855 68.103468,78.680924 56.620753,76.407282 56.620753,76.407282 c -2.086297,1.701201 -3.80062,16.278315 -3.80062,16.278315 1.803275,4.926235 13.674134,12.682343 13.674134,12.682343 11.506976,0.25818 25.771421,-6.933733 28.213518,-8.215676 -0.735863,-1.402887 -1.148271,-3.007335 -1.148271,-4.708538 z"
     id="path34"
     style="fill:#ffffff;stroke-width:0.807414" />
</svg>
