<?xml version="1.0" encoding="UTF-8" standalone="no"?>
<svg
   xmlns:dc="http://purl.org/dc/elements/1.1/"
   xmlns:cc="http://creativecommons.org/ns#"
   xmlns:rdf="http://www.w3.org/1999/02/22-rdf-syntax-ns#"
   xmlns:svg="http://www.w3.org/2000/svg"
   xmlns="http://www.w3.org/2000/svg"
   xmlns:sodipodi="http://sodipodi.sourceforge.net/DTD/sodipodi-0.dtd"
   xmlns:inkscape="http://www.inkscape.org/namespaces/inkscape"
   id="SVGRoot"
   width="430px"
   height="90px"
   version="1.1"
   viewBox="0 0 430 90"
   sodipodi:docname="nt_logo.svg"
   inkscape:version="1.0.2 (e86c870879, 2021-01-15)">
  <sodipodi:namedview
     pagecolor="#ffffff"
     bordercolor="#666666"
     borderopacity="1"
     objecttolerance="10"
     gridtolerance="10"
     guidetolerance="10"
     inkscape:pageopacity="0"
     inkscape:pageshadow="2"
     inkscape:window-width="1920"
     inkscape:window-height="1041"
     id="namedview41"
     showgrid="false"
     inkscape:zoom="2.1193737"
     inkscape:cx="167.7823"
     inkscape:cy="-16.199487"
     inkscape:window-x="0"
     inkscape:window-y="22"
     inkscape:window-maximized="1"
     inkscape:current-layer="g38" />
  <defs
     id="defs18">
    <style
       id="style2">.cls-1, .cls-2, .cls-3, .cls-4 {
        fill: #4e83a3;
      }

      .cls-1, .cls-2, .cls-3 {
        fill-rule: evenodd;
      }

      .cls-2 {
        filter: url(#filter);
      }

      .cls-3 {
        filter: url(#filter-2);
      }

      .cls-4 {
        font-size: 20px;
        font-family: JostRoman;
        font-weight: 700;
        text-transform: uppercase;
      }

      .cls-5 {
        font-weight: 300;
      }</style>
    <filter
       id="filter"
       x="62.375"
       y="167.91"
       width="20.438"
       height="19.813"
       filterUnits="userSpaceOnUse">
      <feFlood
         flood-color="#4e83a3"
         result="flood"
         id="feFlood4" />
      <feComposite
         in2="SourceGraphic"
         operator="in"
         result="composite"
         id="feComposite6" />
      <feBlend
         in2="SourceGraphic"
         result="blend"
         id="feBlend8" />
    </filter>
    <filter
       id="filter-2"
       x="80.906"
       y="182.06"
       width="28.25"
       height="10.407"
       filterUnits="userSpaceOnUse">
      <feFlood
         flood-color="#4e83a3"
         result="flood"
         id="feFlood11" />
      <feComposite
         in2="SourceGraphic"
         operator="in"
         result="composite"
         id="feComposite13" />
      <feBlend
         in2="SourceGraphic"
         result="blend"
         id="feBlend15" />
    </filter>
  </defs>
  <metadata
     id="metadata20">
    <rdf:RDF>
      <cc:Work
         rdf:about="">
        <dc:format>image/svg+xml</dc:format>
        <dc:type
           rdf:resource="http://purl.org/dc/dcmitype/StillImage" />
        <dc:title />
      </cc:Work>
    </rdf:RDF>
  </metadata>
  <g
     transform="translate(-28.817,-165.64)"
     id="g38">
    <path
       class="cls-1"
       d="m 82.5,234.02 c 0,0 -2.1,-0.86 -6.727,0.747 -4.627,1.607 -5.31,2.79 -7.848,7.1 -2.538,4.31 -3.883,10.7 -5.232,11.959 -1.349,1.259 11.153,-1.477 14.948,-8.969 3.795,-7.492 1.504,-5.906 4.859,-10.837 z"
       id="path22"
       style="fill:#ffffff" />
    <path
       id="Shape_1_copy"
       class="cls-1"
       d="m 63.338,233.87 c 0,0 -0.933,-2.069 -5.4,-4.084 -4.467,-2.015 -5.774,-1.627 -10.58,-0.244 -4.806,1.383 -10.179,5.1 -12.023,5.081 -1.844,-0.019 9.112,6.6 17.02,3.772 7.908,-2.828 5.155,-3.255 10.983,-4.525 z"
       data-name="Shape 1 copy"
       style="fill:#ffffff" />
    <path
       class="cls-1"
       d="m 49.615,221.94 c 0,0 1.007,-2.034 -0.267,-6.763 -1.274,-4.729 -2.406,-5.5 -6.524,-8.333 -4.118,-2.833 -10.4,-4.634 -11.556,-6.069 -1.156,-1.435 0.68,11.229 7.883,15.548 7.203,4.319 5.784,1.918 10.464,5.617 z"
       data-name="Shape 1 copy 2"
       id="path25"
       style="fill:#ffffff" />
    <path
       class="cls-1"
       d="m 47.314,196.76 c 0,0 2.116,-0.819 4.371,-5.167 2.255,-4.348 1.937,-5.677 0.817,-10.552 -1.12,-4.875 -4.539,-10.44 -4.423,-12.281 0.116,-1.841 -7.079,8.742 -4.688,16.791 2.391,8.049 2.97,5.321 3.923,11.209 z"
       data-name="Shape 1 copy 3"
       id="path27"
       style="fill:#ffffff" />
    <path
       class="cls-1"
       d="m 96.119,199.46 c 0,0 -0.989,2.042 0.325,6.76 1.314,4.718 2.453,5.475 6.6,8.277 4.147,2.802 10.438,4.544 11.608,5.97 1.17,1.426 -0.777,-11.224 -8.016,-15.48 -7.239,-4.256 -5.805,-1.868 -10.517,-5.527 z"
       data-name="Shape 1 copy 6"
       id="path33"
       style="fill:#ffffff" />
    <path
       class="cls-1"
       d="m 96.452,219.63 c 0,0 -2.127,0.79 -4.44,5.108 -2.313,4.318 -2.014,5.65 -0.96,10.539 1.054,4.889 4.4,10.5 4.256,12.34 -0.144,1.84 7.2,-8.644 4.915,-16.726 -2.285,-8.082 -2.898,-5.36 -3.771,-11.261 z"
       fill="#4e83a3"
       data-name="Shape 1 copy 7"
       id="path35"
       style="fill:#ffffff" />
    <path
       id="NEOTROPIC_copy"
       transform="translate(28.817,165.64)"
       d="m 205.99,20.191 c -6.3853,0 -11.401,1.8321 -15.047,5.4961 -3.6284,3.664 -5.4414,8.7252 -5.4414,15.182 0,6.4387 1.813,11.488 5.4414,15.152 3.6462,3.664 8.6615,5.4961 15.047,5.4961 6.4031,0 11.42,-1.8321 15.049,-5.4961 3.6284,-3.664 5.4414,-8.7136 5.4414,-15.152 0,-6.4565 -1.813,-11.518 -5.4414,-15.182 -3.6284,-3.664 -8.6457,-5.4961 -15.049,-5.4961 z m 116.11,0 c -5.1759,0 -9.321,1.8684 -12.434,5.6035 -3.0948,3.7529 -4.6426,8.7778 -4.6426,15.074 0,6.2964 1.5477,11.312 4.6426,15.047 3.1126,3.7352 7.2577,5.6016 12.434,5.6016 5.1581,0 9.2841,-1.876 12.379,-5.6289 3.0948,-3.7352 4.6426,-8.7409 4.6426,-15.02 0,-6.2964 -1.5477,-11.321 -4.6426,-15.074 -3.0948,-3.7352 -7.2208,-5.6035 -12.379,-5.6035 z m 93.059,0 c -5.585,0 -9.9781,1.8492 -13.18,5.5488 -3.2016,3.6818 -4.8027,8.7258 -4.8027,15.129 0,6.3853 1.6012,11.427 4.8027,15.127 3.2016,3.6818 7.5947,5.5215 13.18,5.5215 2.3478,0 4.5711,-0.31867 6.6699,-0.95898 2.1166,-0.64031 4.1166,-1.6022 6.002,-2.8828 v -3.2285 c -1.8142,1.6541 -3.7436,2.9004 -5.7891,3.7363 -2.0632,0.81818 -4.2503,1.2266 -6.5625,1.2266 -5.0158,0 -8.8498,-1.5916 -11.5,-4.7754 -2.668,-3.1838 -4.002,-7.7716 -4.002,-13.766 0,-5.994 1.334,-10.574 4.002,-13.74 2.6502,-3.166 6.4842,-4.75 11.5,-4.75 2.3122,0 4.4993,0.40839 6.5625,1.2266 2.0454,0.80039 3.9748,2.0295 5.7891,3.6836 v -3.0684 c -1.8498,-1.3518 -3.8326,-2.3575 -5.9492,-3.0156 -2.0988,-0.67588 -4.3393,-1.0137 -6.7227,-1.0137 z m -310.42,0.7207 v 39.832 h 9.7383 v -27.32 l 14.486,27.32 h 11.473 v -39.832 h -9.7383 v 27.32 l -14.486,-27.32 z m 45.729,0 v 39.832 h 28.307 V 52.98 H 160.74 v -9.125 h 16.408 V 36.0913 H 160.74 v -7.416 h 17.449 v -7.7637 z m 79.959,0 v 2.1875 h 14.141 v 37.645 h 2.6953 v -37.645 h 14.139 v -2.1875 z m 38.898,0 v 39.832 h 2.668 v -18.008 h 7.2305 c 2.3656,0 4.2416,0.46182 5.6289,1.3867 1.3518,0.9249 2.7659,2.82 4.2422,5.6836 l 5.6836,10.938 h 2.8555 l -5.5762,-10.885 c -1.3518,-2.5968 -2.3938,-4.3583 -3.123,-5.2832 -1.0316,-1.2806 -2.0984,-2.1165 -3.2012,-2.5078 2.3122,-0.64031 3.9668,-1.7873 4.9629,-3.4414 1.0494,-1.6897 1.5742,-3.7699 1.5742,-6.2422 0,-3.8419 -1.0058,-6.716 -3.0156,-8.6191 -2.0098,-1.9031 -5.05,-2.8535 -9.123,-2.8535 z m 80.92,0 v 39.832 h 2.668 v -17.129 h 8.1914 c 3.9664,0 6.9721,-0.95992 9.0176,-2.8809 2.0277,-1.9209 3.041,-4.7492 3.041,-8.4844 0,-3.7174 -1.0134,-6.5361 -3.041,-8.457 -2.0454,-1.9209 -5.0512,-2.8809 -9.0176,-2.8809 z m 32.896,0 v 39.832 h 2.7754 v -39.832 z m -61.043,1.3594 c 4.3577,0 7.8176,1.6642 10.379,4.9902 2.5435,3.3261 3.8145,7.8624 3.8145,13.607 0,5.7095 -1.271,10.227 -3.8145,13.553 -2.5612,3.3261 -6.0212,4.9883 -10.379,4.9883 -4.3577,0 -7.8272,-1.6622 -10.406,-4.9883 -2.5612,-3.3261 -3.8418,-7.8433 -3.8418,-13.553 0,-5.745 1.2806,-10.281 3.8418,-13.607 2.579,-3.3261 6.0486,-4.9902 10.406,-4.9902 z m -50.105,0.82812 h 8.8047 c 2.8458,0 4.9985,0.72901 6.457,2.1875 1.4585,1.4585 2.1875,3.6188 2.1875,6.4824 0,2.8814 -0.72901,5.0608 -2.1875,6.5371 -1.45849,1.4763 -3.6112,2.2148 -6.457,2.2148 h -8.8047 z m 80.92,0.02734 h 8.1914 c 2.9703,0 5.2642,0.79005 6.8828,2.373 1.6364,1.6008 2.4551,3.8508 2.4551,6.75 0,2.9526 -0.81873,5.2217 -2.4551,6.8047 -1.6186,1.583 -3.9125,2.373 -6.8828,2.373 h -8.1914 z m -146.93,4.5078 c 3.1482,0 5.5853,1.1565 7.3106,3.4688 1.7253,2.3122 2.5879,5.568 2.5879,9.7656 0,4.1798 -0.86261,7.4241 -2.5879,9.7363 -1.7253,2.3122 -4.1624,3.4688 -7.3106,3.4688 -3.1304,0 -5.5579,-1.1565 -7.2832,-3.4688 -1.7253,-2.3122 -2.5879,-5.5565 -2.5879,-9.7363 0,-4.1976 0.86261,-7.4534 2.5879,-9.7656 1.7253,-2.3122 4.1528,-3.4688 7.2832,-3.4688 z"
       fill="#4e83a3"
       stroke-width="2.732"
       style="fill:#ffffff" />
    <path
       class="cls-1"
       d="m 80.955937,186.33692 c 0,0 0.800599,2.12294 5.127594,4.41712 4.326994,2.29417 5.660114,1.98896 10.547133,0.90922 4.887016,-1.07976 10.480786,-4.4444 12.320566,-4.31164 1.83978,0.1328 -8.67701,-7.1618 -16.747025,-4.83981 -8.070009,2.32198 -5.350668,2.92537 -11.248268,3.82511 z"
       data-name="Shape 1 copy 6"
       id="path33-3"
       style="fill:#ffffff;fill-rule:evenodd" />
    <path
       class="cls-1"
       d="m 62.414881,187.35732 c 0,0 2.073406,0.92132 6.745656,-0.5471 4.67224,-1.46842 5.391389,-2.63168 8.055521,-6.86857 2.664118,-4.2369 4.198336,-10.58175 5.585102,-11.79802 1.386795,-1.21623 -11.192383,1.14563 -15.208064,8.52065 -4.015683,7.37502 -1.676125,5.86328 -5.178215,10.69304 z"
       data-name="Shape 1 copy 6"
       id="path33-3-5"
       style="fill:#ffffff;fill-rule:evenodd" />
  </g>
</svg>
