<?xml version="1.0" encoding="UTF-8" standalone="no"?>
<!-- Generated by IcoMoon.io -->

<svg
   xmlns:dc="http://purl.org/dc/elements/1.1/"
   xmlns:cc="http://creativecommons.org/ns#"
   xmlns:rdf="http://www.w3.org/1999/02/22-rdf-syntax-ns#"
   xmlns:svg="http://www.w3.org/2000/svg"
   xmlns="http://www.w3.org/2000/svg"
   xmlns:sodipodi="http://sodipodi.sourceforge.net/DTD/sodipodi-0.dtd"
   xmlns:inkscape="http://www.inkscape.org/namespaces/inkscape"
   version="1.1"
   width="16"
   height="16"
   viewBox="0 0 16 16"
   id="svg2"
   inkscape:version="0.91 r13725"
   sodipodi:docname="map-marker-add.svg">
  <metadata
     id="metadata10">
    <rdf:RDF>
      <cc:Work
         rdf:about="">
        <dc:format>image/svg+xml</dc:format>
        <dc:type
           rdf:resource="http://purl.org/dc/dcmitype/StillImage" />
      </cc:Work>
    </rdf:RDF>
  </metadata>
  <defs
     id="defs8">
    <clipPath
       clipPathUnits="userSpaceOnUse"
       id="clipPath4186">
      <path
         d="M 8,0 C 5.2,0 3,2.2 3,5 3,7.8 7,16 8,16 9,16 13,7.8 13,5 13,2.2 10.8,0 8,0 Z M 8,8 C 6.3,8 5,6.7 5,5 5,3.3 6.3,2 8,2 9.7,2 11,3.3 11,5 11,6.7 9.7,8 8,8 Z"
         id="path4188"
         inkscape:connector-curvature="0"
         style="fill:#444444" />
    </clipPath>
  </defs>
  <sodipodi:namedview
     pagecolor="#ffffff"
     bordercolor="#666666"
     borderopacity="1"
     objecttolerance="10"
     gridtolerance="10"
     guidetolerance="10"
     inkscape:pageopacity="0"
     inkscape:pageshadow="2"
     inkscape:window-width="1920"
     inkscape:window-height="1019"
     id="namedview6"
     showgrid="false"
     inkscape:zoom="20.85965"
     inkscape:cx="4.3425088"
     inkscape:cy="6.753616"
     inkscape:window-x="0"
     inkscape:window-y="32"
     inkscape:window-maximized="1"
     inkscape:current-layer="svg2" />
  <path
     d="M 5,-4.4e-7 C 2.2,-4.4e-7 0,2.1999996 0,4.9999996 0,7.7999996 4,16 5,16 6,16 10,7.7999996 10,4.9999996 10,2.1999996 7.8,-4.4e-7 5,-4.4e-7 Z M 5,7.9999996 c -1.7,0 -3,-1.3 -3,-3 0,-1.7 1.3,-3 3,-3 1.7,0 3,1.3 3,3 0,1.7 -1.3,3 -3,3 z"
     id="path4"
     inkscape:connector-curvature="0"
     style="fill:#444444" />
  <path
     inkscape:connector-curvature="0"
     style="fill:#444444"
     d="m 14.087468,3.5 -2,0 0,2 -2,0 0,2 2,0 0,2 2,0 0,-2 2,0 0,-2 -2,0 0,-2 z"
     id="path6" />
</svg>
