<?xml version="1.0" encoding="UTF-8" standalone="no"?>
<!-- Generated by IcoMoon.io -->

<svg
   xmlns:dc="http://purl.org/dc/elements/1.1/"
   xmlns:cc="http://creativecommons.org/ns#"
   xmlns:rdf="http://www.w3.org/1999/02/22-rdf-syntax-ns#"
   xmlns:svg="http://www.w3.org/2000/svg"
   xmlns="http://www.w3.org/2000/svg"
   xmlns:sodipodi="http://sodipodi.sourceforge.net/DTD/sodipodi-0.dtd"
   xmlns:inkscape="http://www.inkscape.org/namespaces/inkscape"
   version="1.1"
   width="16"
   height="16"
   viewBox="0 0 16 16"
   id="svg2"
   inkscape:version="0.91 r13725"
   sodipodi:docname="marker-cxn.svg">
  <metadata
     id="metadata10">
    <rdf:RDF>
      <cc:Work
         rdf:about="">
        <dc:format>image/svg+xml</dc:format>
        <dc:type
           rdf:resource="http://purl.org/dc/dcmitype/StillImage" />
      </cc:Work>
    </rdf:RDF>
  </metadata>
  <defs
     id="defs8" />
  <sodipodi:namedview
     pagecolor="#ffffff"
     bordercolor="#666666"
     borderopacity="1"
     objecttolerance="10"
     gridtolerance="10"
     guidetolerance="10"
     inkscape:pageopacity="0"
     inkscape:pageshadow="2"
     inkscape:window-width="1920"
     inkscape:window-height="1019"
     id="namedview6"
     showgrid="false"
     inkscape:zoom="41.7193"
     inkscape:cx="7.8595571"
     inkscape:cy="6.0072774"
     inkscape:window-x="0"
     inkscape:window-y="32"
     inkscape:window-maximized="1"
     inkscape:current-layer="svg2" />
  <path
     d="m 5.2675728,0.01233766 c -2.8,0 -4.99999998,2.20000004 -4.99999998,5.00000004 0,2.8 3.99999998,10.9999993 4.99999998,10.9999993 1,0 5.0000002,-8.1999993 5.0000002,-10.9999993 0,-2.8 -2.2000002,-5.00000004 -5.0000002,-5.00000004 z m 0,8.00000004 c -1.7,0 -3,-1.3 -3,-3 0,-1.7 1.3,-3 3,-3 1.7,0 3,1.3 3,3 0,1.7 -1.3,3 -3,3 z"
     id="path4"
     inkscape:connector-curvature="0"
     style="fill:#444444" />
  <path
     inkscape:connector-curvature="0"
     style="fill:#444444"
     d="m 13.968239,6.7750631 c 0.232657,0.267995 0.232657,0.6699871 0,0.9379821 l -1.628598,1.875964 0.814298,1.0049808 1.628599,-1.8759639 c 0.232656,-0.267995 0.581642,-0.267995 0.814299,0 0.232656,0.267995 0.232656,0.6699872 0,0.937982 l -1.628598,1.8759639 0.814299,0.937983 -0.814299,0.937983 -0.407149,-0.468991 -0.8143,0.937981 C 11.932491,14.81491 10.711043,14.881909 9.7804161,14.211922 8.907953,15.32693 7.3038817,15.987617 5.4042143,15.92016 L 6.369177,14.781703 C 7.4608879,14.661854 7.9188257,14.561646 9.0242814,13.206941 8.5589677,12.201959 8.7334603,10.928984 9.4314309,10.125 L 10.245729,9.1870171 9.8385804,8.7180261 10.652878,7.7800439 l 0.8143,0.9379822 1.628597,-1.8759643 c 0.290822,-0.3349936 0.639807,-0.3349936 0.872464,-0.066999 z"
     id="path4-3"
     sodipodi:nodetypes="ssccsssccccsccccsccccss" />
</svg>
