<?xml version="1.0" encoding="UTF-8" standalone="no"?>
<!-- Generated by IcoMoon.io -->

<svg
   xmlns:dc="http://purl.org/dc/elements/1.1/"
   xmlns:cc="http://creativecommons.org/ns#"
   xmlns:rdf="http://www.w3.org/1999/02/22-rdf-syntax-ns#"
   xmlns:svg="http://www.w3.org/2000/svg"
   xmlns="http://www.w3.org/2000/svg"
   xmlns:sodipodi="http://sodipodi.sourceforge.net/DTD/sodipodi-0.dtd"
   xmlns:inkscape="http://www.inkscape.org/namespaces/inkscape"
   version="1.1"
   width="16"
   height="16"
   viewBox="0 0 16 16"
   id="svg2"
   inkscape:version="0.91 r13725"
   sodipodi:docname="plug-plug.svg">
  <metadata
     id="metadata10">
    <rdf:RDF>
      <cc:Work
         rdf:about="">
        <dc:format>image/svg+xml</dc:format>
        <dc:type
           rdf:resource="http://purl.org/dc/dcmitype/StillImage" />
      </cc:Work>
    </rdf:RDF>
  </metadata>
  <defs
     id="defs8">
    <clipPath
       clipPathUnits="userSpaceOnUse"
       id="clipPath4199">
      <rect
         style="opacity:0.78999999;fill:#444444;fill-opacity:1;stroke:none;stroke-width:0.99900001;stroke-miterlimit:4;stroke-dasharray:none;stroke-dashoffset:1.54879999;stroke-opacity:1"
         id="rect4201"
         width="13.685938"
         height="10.957694"
         x="-2.4598908"
         y="3.8794472" />
    </clipPath>
    <clipPath
       clipPathUnits="userSpaceOnUse"
       id="clipPath4207">
      <rect
         style="opacity:0.78999999;fill:#444444;fill-opacity:1;stroke:none;stroke-width:0.99900001;stroke-miterlimit:4;stroke-dasharray:none;stroke-dashoffset:1.54879999;stroke-opacity:1"
         id="rect4209"
         width="14.80407"
         height="11.539124"
         x="7.2902217"
         y="-9.4039621" />
    </clipPath>
  </defs>
  <sodipodi:namedview
     pagecolor="#ffffff"
     bordercolor="#666666"
     borderopacity="1"
     objecttolerance="10"
     gridtolerance="10"
     guidetolerance="10"
     inkscape:pageopacity="0"
     inkscape:pageshadow="2"
     inkscape:window-width="1920"
     inkscape:window-height="1019"
     id="namedview6"
     showgrid="false"
     inkscape:zoom="22.358716"
     inkscape:cx="3.4609896"
     inkscape:cy="13.259332"
     inkscape:window-x="0"
     inkscape:window-y="32"
     inkscape:window-maximized="1"
     inkscape:current-layer="svg2" />
  <path
     d="m 9.7377511,8.3013949 c -0.2975443,-0.2803396 -0.7438608,-0.2803396 -1.0414051,0 L 6.6135364,10.263772 5.497746,9.2825835 7.5805554,7.3202063 c 0.2975441,-0.2803396 0.2975441,-0.700849 0,-0.9811886 -0.2975443,-0.2803396 -0.7438607,-0.2803396 -1.041405,0 L 4.456341,8.3013949 3.4149359,7.3202063 2.3735302,8.3013949 2.8942327,8.7919892 1.8528276,9.7731778 C 0.81142255,10.754366 0.73703647,12.226149 1.4808973,13.347507 0.21633395,14.398781 0.66568331,14.288639 -0.21983219,15.841631 l 1.48772149,0 c 0.3795066,-0.499971 0.064236,-0.742001 1.3287991,-1.58302 1.1157918,0.560679 2.5291273,0.350425 3.4217602,-0.490594 L 7.0598529,12.786828 7.5805554,13.277422 8.6219599,12.296234 7.5805554,11.315045 9.663365,9.3526684 c 0.37193,-0.3504245 0.37193,-0.7709339 0.074386,-1.0512735 z"
     id="path4"
     inkscape:connector-curvature="0"
     style="fill:#444444"
     sodipodi:nodetypes="ssccsssccccsccccsccccss"
     clip-path="url(#clipPath4199)"
     transform="translate(0.13417586,-0.08945058)" />
  <path
     inkscape:connector-curvature="0"
     style="fill:#444444"
     d="m 16.78156,-1.7154811 1.041405,-0.9811886 -0.520703,-0.4905943 1.041405,-0.9811886 c 1.041405,-0.9811887 1.115791,-2.4529715 0.371931,-3.57433 1.264563,-1.0512734 1.416488,-1.2890125 1.416488,-2.6206254 l -1.487722,0 c 0,0.9111035 0.220006,0.868503 -1.044557,1.7095217 -1.115792,-0.5606791 -2.529127,-0.3504244 -3.42176,0.4905943 l -1.041405,0.9811886 -0.520702,-0.4905943 -1.041405,0.9811887 z"
     id="path4-3-6-7"
     sodipodi:nodetypes="cccsccccscccc"
     clip-path="url(#clipPath4207)"
     transform="translate(-4.5619793,10.420993)" />
</svg>
