<?xml version="1.0" encoding="UTF-8" standalone="no"?>
<!-- Created with Inkscape (http://www.inkscape.org/) -->

<svg
   xmlns:dc="http://purl.org/dc/elements/1.1/"
   xmlns:cc="http://creativecommons.org/ns#"
   xmlns:rdf="http://www.w3.org/1999/02/22-rdf-syntax-ns#"
   xmlns:svg="http://www.w3.org/2000/svg"
   xmlns="http://www.w3.org/2000/svg"
   xmlns:sodipodi="http://sodipodi.sourceforge.net/DTD/sodipodi-0.dtd"
   xmlns:inkscape="http://www.inkscape.org/namespaces/inkscape"
   width="48px"
   height="48px"
   id="svg2980"
   version="1.1"
   inkscape:version="0.47 r22583"
   sodipodi:docname="icon.svg">
  <defs
     id="defs2982">
    <inkscape:perspective
       sodipodi:type="inkscape:persp3d"
       inkscape:vp_x="0 : 24 : 1"
       inkscape:vp_y="0 : 1000 : 0"
       inkscape:vp_z="48 : 24 : 1"
       inkscape:persp3d-origin="24 : 16 : 1"
       id="perspective2988" />
    <inkscape:perspective
       id="perspective2998"
       inkscape:persp3d-origin="0.5 : 0.33333333 : 1"
       inkscape:vp_z="1 : 0.5 : 1"
       inkscape:vp_y="0 : 1000 : 0"
       inkscape:vp_x="0 : 0.5 : 1"
       sodipodi:type="inkscape:persp3d" />
    <inkscape:perspective
       id="perspective3053"
       inkscape:persp3d-origin="0.5 : 0.33333333 : 1"
       inkscape:vp_z="1 : 0.5 : 1"
       inkscape:vp_y="0 : 1000 : 0"
       inkscape:vp_x="0 : 0.5 : 1"
       sodipodi:type="inkscape:persp3d" />
  </defs>
  <sodipodi:namedview
     id="base"
     pagecolor="#ffffff"
     bordercolor="#666666"
     borderopacity="1.0"
     inkscape:pageopacity="0.0"
     inkscape:pageshadow="2"
     inkscape:zoom="7"
     inkscape:cx="11.239954"
     inkscape:cy="13.447543"
     inkscape:current-layer="layer1"
     showgrid="true"
     inkscape:grid-bbox="true"
     inkscape:document-units="px"
     inkscape:window-width="1280"
     inkscape:window-height="750"
     inkscape:window-x="0"
     inkscape:window-y="0"
     inkscape:window-maximized="1" />
  <metadata
     id="metadata2985">
    <rdf:RDF>
      <cc:Work
         rdf:about="">
        <dc:format>image/svg+xml</dc:format>
        <dc:type
           rdf:resource="http://purl.org/dc/dcmitype/StillImage" />
        <dc:title />
      </cc:Work>
    </rdf:RDF>
  </metadata>
  <g
     id="layer1"
     inkscape:label="Layer 1"
     inkscape:groupmode="layer">
    <rect
       style="fill:#000080;fill-opacity:1;stroke:none"
       id="rect2816-8-4"
       width="48.096581"
       height="47.249554"
       x="0.098653316"
       y="0.51807994"
       ry="3.8571069" />
    <path
       style="fill:none;stroke:#ffffff;stroke-width:0.3448278;stroke-linecap:butt;stroke-linejoin:miter;stroke-miterlimit:4;stroke-opacity:1;stroke-dasharray:none"
       d="m 20.654012,21.934568 3.262322,-11.068395 3.683243,11.09722"
       id="path3596-7-7"
       sodipodi:nodetypes="ccc" />
    <path
       style="fill:none;stroke:#ffffff;stroke-width:0.3448278;stroke-linecap:butt;stroke-linejoin:miter;stroke-miterlimit:4;stroke-opacity:1;stroke-dasharray:none"
       d="m 22.574552,14.973586 3.972666,3.783142"
       id="path3598-1-9"
       sodipodi:nodetypes="cc" />
    <path
       style="fill:none;stroke:#ffffff;stroke-width:0.3448278;stroke-linecap:butt;stroke-linejoin:miter;stroke-miterlimit:4;stroke-opacity:1;stroke-dasharray:none"
       d="m 25.389642,14.901527 -3.841137,3.963292"
       id="path3598-6-7-3"
       sodipodi:nodetypes="cc" />
    <path
       sodipodi:type="arc"
       style="fill:none;stroke:#ffffff;stroke-width:2;stroke-miterlimit:4;stroke-opacity:1;stroke-dasharray:none"
       id="path3622-2-9"
       sodipodi:cx="325.35715"
       sodipodi:cy="246.29076"
       sodipodi:rx="3.9285715"
       sodipodi:ry="3.9285715"
       d="m 329.28572,246.29076 a 3.9285715,3.9285715 0 1 1 -7.85714,0 3.9285715,3.9285715 0 1 1 7.85714,0 z"
       transform="matrix(0.14733059,0,0,0.2017676,-24.066088,-39.656003)" />
    <path
       style="fill:none;stroke:#ffffff;stroke-width:0.3448278;stroke-linecap:butt;stroke-linejoin:miter;stroke-miterlimit:4;stroke-opacity:1;stroke-dasharray:none"
       d="m 22.506155,7.724368 c 0.02342,0.156835 0.06995,0.139738 0.131702,0.252217 0.01171,0.02134 0.01171,0.05308 0.02634,0.07207 0.0087,0.01174 0.08605,-0.0088 0.105066,0 0.0117,0.0053 0.01463,0.03067 0.02634,0.03604 0.02342,0.0112 0.140483,-0.01174 0.15775,0 0.02342,0.0152 0.03043,0.05687 0.05268,0.07207 0.0087,0.0053 0.01756,0 0.02634,0 0.01756,0 0.03599,-0.0075 0.05268,0 0.04477,0.02054 0.01757,0.03603 0.02633,0.07207 0.03014,0.124188 0.02634,0.02667 0.02634,0.108078 0,0.012 0.0087,0.03603 0,0.03603 -0.0087,0 0,-0.04804 0,-0.03603 0,0.03603 -0.0059,0.07314 0,0.108078 7.89e-4,0.0051 0.04741,0.06159 0.05268,0.07207 0.0117,0.0224 0.01463,0.04972 0.02633,0.07204 0.0117,0.02374 0.07405,0.08858 0.07903,0.108104 0.0059,0.02267 0,0.04804 0,0.07207"
       id="path3628-7-2" />
    <path
       style="fill:none;stroke:#ffffff;stroke-width:0.32758632;stroke-linecap:butt;stroke-linejoin:miter;stroke-miterlimit:4;stroke-opacity:1;stroke-dasharray:none"
       d="m 22.132559,10.851762 c 0.02342,-0.02841 -0.0117,-0.07586 0,-0.108078 0.0059,-0.01521 0.01757,-0.02401 0.02634,-0.03603 0.02633,-0.03603 0.05268,-0.07207 0.07903,-0.108078 0.01463,-0.01893 0.06498,-0.09848 0.07903,-0.108078 0.0087,-0.0059 0.107999,0 0.131411,0 0.0087,0 0.01756,0 0.02634,0 0.0087,0 0.01756,-0.0053 0.02634,0 0.01171,0.0075 0.01463,0.02843 0.02633,0.03603 0.0087,0.0053 0.02634,-0.012 0.02634,0 0,0.012 -0.03424,0.0053 -0.02634,0 0.02342,-0.01707 0.05209,-0.02681 0.07903,-0.03603 0.0087,-0.0029 0.01756,0.0053 0.02634,0 0.01756,-0.01147 0.110923,-0.151847 0.131701,-0.180147"
       id="path3630-2-8" />
    <path
       style="fill:none;stroke:#ffffff;stroke-width:0.3448278;stroke-linecap:butt;stroke-linejoin:miter;stroke-miterlimit:4;stroke-opacity:1;stroke-dasharray:none"
       d="m 23.834767,6.913693 c 0.0087,0.04758 -0.0087,0.176467 0,0.216183 0.0029,0.016 0.02342,0.02 0.02633,0.03603 0.0059,0.02267 -0.0029,0.04876 0,0.07207 0.0059,0.02614 0.02049,0.0466 0.02634,0.07207 0.0028,0.01147 0,0.02401 0,0.03603 0,0.0614 -0.0028,0.06447 0.02633,0.144112 0.0059,0.0152 0.02048,0.02081 0.02634,0.03603 0.0029,0.008 0,0.135551 0,0.144113 0,0.02481 0.0029,0.133176 0,0.144112 -0.0059,0.0152 -0.02048,0.0208 -0.02634,0.03603 -0.0087,0.0216 0.0087,0.05057 0,0.07207 -0.0059,0.0152 -0.01756,0.02401 -0.02633,0.03603 -0.0087,0.012 -0.01757,0.024 -0.02634,0.03603"
       id="path3634-2-3" />
    <path
       style="fill:none;stroke:#ffffff;stroke-width:0.20689666;stroke-linecap:butt;stroke-linejoin:miter;stroke-miterlimit:4;stroke-opacity:0;stroke-dasharray:none"
       d="m 0.93274871,30.034101 45.67248029,0 0,0"
       id="path3648-1-9" />
    <path
       style="fill:none;stroke:#ffffff;stroke-width:0.3448278;stroke-linecap:butt;stroke-linejoin:miter;stroke-miterlimit:4;stroke-opacity:1;stroke-dasharray:none"
       d="m 1.6694031,30.034101 c 1.7768968,-1.486584 6.3949326,-2.946373 8.1031976,-4.035356 11.1412453,-7.102331 18.7567053,-4.913834 27.9928063,0 2.664804,1.417758 5.878426,2.095226 8.839822,4.035356 l 0,0"
       id="path3650-5-1"
       sodipodi:nodetypes="csscc" />
    <path
       style="fill:none;stroke:#ffffff;stroke-width:0.3448278;stroke-linecap:butt;stroke-linejoin:miter;stroke-miterlimit:4;stroke-opacity:1;stroke-dasharray:none"
       d="m 25.296135,7.742382 c -0.02342,0.156836 -0.06995,0.139739 -0.131411,0.252217 -0.0117,0.0216 -0.0117,0.05308 -0.02633,0.07207 -0.0087,0.012 -0.08604,-0.0088 -0.105365,0 -0.0117,0.0053 -0.01463,0.03067 -0.02634,0.03603 -0.02342,0.0112 -0.140483,-0.01174 -0.15775,0 -0.02342,0.0152 -0.03044,0.05687 -0.05268,0.07207 -0.0087,0.0053 -0.01757,0 -0.02634,0 -0.01757,0 -0.036,-0.0075 -0.05268,0 -0.04477,0.02054 -0.01756,0.03604 -0.02633,0.07207 -0.03014,0.124215 -0.02634,0.0267 -0.02634,0.108078 0,0.012 -0.0087,0.03603 0,0.03603 0.0087,0 0,-0.04804 0,-0.03603 0,0.03603 0.0059,0.07314 0,0.108104 -7.62e-4,0.0051 -0.04741,0.06159 -0.05268,0.07208 -0.0117,0.0224 -0.01463,0.04972 -0.02633,0.07206 -0.0117,0.02374 -0.07405,0.08858 -0.07903,0.108078 -0.0059,0.02267 0,0.04804 0,0.07207"
       id="path3628-8-9-5" />
    <path
       style="fill:none;stroke:#ffffff;stroke-width:0.32758632;stroke-linecap:butt;stroke-linejoin:miter;stroke-miterlimit:4;stroke-opacity:1;stroke-dasharray:none"
       d="m 25.477826,10.949045 c -0.02342,-0.02841 0.01171,-0.07585 0,-0.108078 -0.0059,-0.01521 -0.01757,-0.024 -0.02633,-0.03603 -0.02634,-0.03603 -0.05268,-0.07207 -0.07903,-0.108104 -0.01463,-0.01893 -0.06498,-0.09848 -0.07903,-0.108078 -0.0087,-0.0059 -0.107997,0 -0.131702,0 -0.0087,0 -0.01756,0 -0.02634,0 -0.0087,0 -0.01756,-0.0053 -0.02633,0 -0.0117,0.0075 -0.01463,0.02841 -0.02634,0.03603 -0.0087,0.0053 -0.02634,-0.012 -0.02634,0 0,0.012 0.03425,0.0053 0.02634,0 -0.02342,-0.01707 -0.0521,-0.02681 -0.07903,-0.03603 -0.0087,-0.0029 -0.01756,0.0053 -0.02634,0 -0.01757,-0.01147 -0.110922,-0.151847 -0.131702,-0.180147"
       id="path3630-6-4-4" />
    <text
       xml:space="preserve"
       style="font-size:40px;font-style:normal;font-variant:normal;font-weight:normal;font-stretch:normal;fill:#ffffff;fill-opacity:1;stroke:none;font-family:cmex10;-inkscape-font-specification:cmex10"
       x="1.1685257"
       y="42.108261"
       id="text3642-0-1"><tspan
         sodipodi:role="line"
         id="tspan3644-6-1"
         x="1.1685257"
         y="42.108261"
         style="font-size:11px;font-style:normal;font-variant:normal;font-weight:normal;font-stretch:normal;fill:#ffffff;font-family:Georgia;-inkscape-font-specification:Georgia">Telcolabs</tspan></text>
  </g>
</svg>
