<?xml version="1.0" encoding="UTF-8" standalone="no"?>
<!-- Created with Inkscape (http://www.inkscape.org/) -->

<svg
   xmlns:dc="http://purl.org/dc/elements/1.1/"
   xmlns:cc="http://creativecommons.org/ns#"
   xmlns:rdf="http://www.w3.org/1999/02/22-rdf-syntax-ns#"
   xmlns:svg="http://www.w3.org/2000/svg"
   xmlns="http://www.w3.org/2000/svg"
   xmlns:xlink="http://www.w3.org/1999/xlink"
   xmlns:sodipodi="http://sodipodi.sourceforge.net/DTD/sodipodi-0.dtd"
   xmlns:inkscape="http://www.inkscape.org/namespaces/inkscape"
   width="48"
   height="48"
   id="svg2"
   version="1.1"
   inkscape:version="0.91 r13725"
   sodipodi:docname="iconv2.svg"
   inkscape:export-filename="/home/zim/icon.png"
   inkscape:export-xdpi="90"
   inkscape:export-ydpi="90">
  <defs
     id="defs4">
    <inkscape:perspective
       sodipodi:type="inkscape:persp3d"
       inkscape:vp_x="0 : 526.18109 : 1"
       inkscape:vp_y="0 : 1000 : 0"
       inkscape:vp_z="744.09448 : 526.18109 : 1"
       inkscape:persp3d-origin="372.04724 : 350.78739 : 1"
       id="perspective10" />
    <inkscape:perspective
       id="perspective3058"
       inkscape:persp3d-origin="0.5 : 0.33333333 : 1"
       inkscape:vp_z="1 : 0.5 : 1"
       inkscape:vp_y="0 : 1000 : 0"
       inkscape:vp_x="0 : 0.5 : 1"
       sodipodi:type="inkscape:persp3d" />
    <linearGradient
       inkscape:collect="always"
       xlink:href="#linearGradient2708"
       id="linearGradient2720"
       gradientUnits="userSpaceOnUse"
       x1="85.755394"
       y1="71.803535"
       x2="53.808521"
       y2="116.259" />
    <linearGradient
       inkscape:collect="always"
       id="linearGradient2708">
      <stop
         style="stop-color:#e5ffd5;stop-opacity:1;"
         offset="0"
         id="stop2710" />
      <stop
         style="stop-color:#e5ffd5;stop-opacity:0;"
         offset="1"
         id="stop2712" />
    </linearGradient>
    <linearGradient
       inkscape:collect="always"
       xlink:href="#linearGradient2708"
       id="linearGradient2714"
       x1="85.755394"
       y1="71.803535"
       x2="53.808521"
       y2="116.259"
       gradientUnits="userSpaceOnUse" />
    <pattern
       patternTransform="matrix(1.5806 0 0 1.5806 4287.9658 3833.79)"
       xlink:href="#New_Pattern_Swatch_5"
       id="pattern3095" />
    <pattern
       patternTransform="matrix(1.5806 0 0 1.5806 4287.9658 3833.79)"
       xlink:href="#New_Pattern_Swatch_5"
       id="pattern3098" />
    <pattern
       patternTransform="matrix(1.5806 0 0 1.5806 4287.9658 3833.79)"
       xlink:href="#New_Pattern_Swatch_5"
       id="pattern3101" />
  </defs>
  <sodipodi:namedview
     id="base"
     pagecolor="#ffffff"
     bordercolor="#666666"
     borderopacity="1.0"
     inkscape:pageopacity="0"
     inkscape:pageshadow="2"
     inkscape:zoom="7.919596"
     inkscape:cx="-3.5504238"
     inkscape:cy="-1.2281327"
     inkscape:document-units="px"
     inkscape:current-layer="layer1"
     showgrid="false"
     inkscape:window-width="1440"
     inkscape:window-height="845"
     inkscape:window-x="0"
     inkscape:window-y="0"
     inkscape:window-maximized="1" />
  <metadata
     id="metadata7">
    <rdf:RDF>
      <cc:Work
         rdf:about="">
        <dc:format>image/svg+xml</dc:format>
        <dc:type
           rdf:resource="http://purl.org/dc/dcmitype/StillImage" />
        <dc:title />
      </cc:Work>
    </rdf:RDF>
  </metadata>
  <g
     inkscape:label="Layer 1"
     inkscape:groupmode="layer"
     id="layer1"
     transform="translate(0,-1004.3622)">
    <g
       id="g16"
       style="fill:#88aa00"
       transform="matrix(0.10811093,0,0,0.10811093,-45.363828,984.78567)">
      <pattern
         id="pattern3091"
         xlink:href="#New_Pattern_Swatch_5"
         patternTransform="matrix(1.5806 0 0 1.5806 4287.9658 3833.79)" />
      <path
         inkscape:connector-curvature="0"
         class="st1"
         d="M 586.3,551.9"
         id="path19"
         style="fill:#88aa00" />
    </g>
    <path
       style="fill:#88aa00"
       id="path24"
       d="m 23.827167,1007.8565 c -11.124614,0 -20.1734993,9.0489 -20.1734993,20.1735 0,11.1247 9.0488853,20.1735 20.1734993,20.1735 11.124615,0 20.1735,-9.0488 20.1735,-20.1735 0,-11.1246 -9.048885,-20.1735 -20.1735,-20.1735 z m 0,38.3686 c -10.032694,0 -18.1950693,-8.1624 -18.1950693,-18.1951 0,-10.0327 8.1623753,-18.195 18.1950693,-18.195 10.032695,0 18.19507,8.1623 18.19507,18.195 0,10.0327 -8.162375,18.1951 -18.19507,18.1951 z"
       class="st2"
       inkscape:connector-curvature="0" />
    <path
       style="fill:#88aa00"
       id="path27"
       d="m 20.400051,1016.3 c -0.345955,0.2487 -0.69191,0.4865 -1.016243,0.8108 l -7.665065,0 c -0.583799,0.6487 -1.102731,1.2974 -1.57842,2.0541 l 7.383977,0 c -0.2919,0.4325 -0.551366,0.8649 -0.767588,1.4055 l -7.4380316,0 c -0.345955,0.6487 -0.6378545,1.2973 -0.8865096,2.0541 l 8.4650862,0 c 0.875698,0 1.762208,0.173 2.594662,0.5081 -0.227033,0.4649 -0.432444,0.9622 -0.605421,1.4595 -1.167598,-0.5081 -2.475741,-0.7784 -3.881183,-0.7784 l -6.9407214,0 c -0.1837886,0.6487 -0.3135217,1.2973 -0.4108215,2.0541 l 7.3515429,0 c 1.232465,0 2.378441,0.2595 3.36225,0.7568 -0.108111,0.6487 -0.172977,1.319 -0.172977,1.9892 -1.28652,-0.9838 -2.983862,-1.5568 -4.789314,-1.5568 l -5.8488018,0 c -0.021622,0.3244 -0.032433,0.6487 -0.032433,0.9839 0,0.3567 0.010811,0.7459 0.032433,1.0703 l 5.8488018,0 c 1.081109,0 2.162218,0.2702 3.048728,0.7892 0.800021,0.4756 1.394631,1.1027 1.751397,1.8378 0,4.4434 0,9.5895 0,11.6003 0.670288,0.2487 1.362198,0.4541 2.064919,0.6055 0,-1.546 0,-9.8706 0,-15.1896 0,-0.2487 0.01081,-0.4865 0.02162,-0.7244 0.929754,1.0271 1.491931,2.3352 1.502742,3.7839 0,4.2812 -0.03243,10.303 -0.03243,12.4003 0.670288,0.087 1.362198,0.1406 2.064919,0.1406 0.01081,-1.9244 0.03243,-8.1083 0.03243,-12.5409 l 0,0 c 0,0 0,0 0,-0.022 0,-0.5514 0,-1.0595 0,-1.5352 0,-0.9622 0.162167,-1.8379 0.443255,-2.6703 0.681099,1.2649 1.08111,2.6055 1.08111,4.119 l 0.01081,0 c 0,0.1081 -0.01081,0.1946 -0.01081,0.3027 0.02162,3.3082 0.03243,9.9787 0.04324,12.2706 0.702721,-0.065 1.394631,-0.1838 2.064919,-0.3351 -0.01081,-2.5406 -0.02162,-8.8003 -0.04325,-11.9679 -0.01081,-1.7622 0.59461,-3.319 1.697342,-4.4326 1.102731,-1.1027 2.605473,-1.6649 4.346059,-1.6649 l 6.540712,0 c -0.0973,-0.7567 -0.227033,-1.4054 -0.410822,-2.0541 l -6.12989,0 c -2.270329,0 -4.335248,0.7892 -5.805557,2.2704 -0.432443,0.4324 -0.80002,0.8973 -1.113542,1.427 -0.313522,-0.7243 -0.69191,-1.4162 -1.135165,-2.0649 1.373009,-1.8487 3.546039,-3.0379 6.03259,-3.0379 l 7.708309,0 c -0.259466,-0.7568 -0.572988,-1.4055 -0.929754,-2.0541 l -6.789366,0 c -2.57304,0 -4.983914,1.0054 -6.800178,2.8325 -0.194599,0.2054 -0.389199,0.4108 -0.562176,0.627 -0.518933,-0.5297 -1.070299,-1.0054 -1.664909,-1.427 1.545987,-1.9677 3.805505,-3.2109 6.313679,-3.2109 l 8.81104,0 c -0.475688,-0.7568 -1.005431,-1.4055 -1.578419,-2.0541 l -7.232621,0 c -2.843318,0 -5.502847,1.2216 -7.492088,3.4487 -0.227033,0.2487 -0.432444,0.5081 -0.637854,0.7784 -0.529744,-0.2378 -1.08111,-0.4216 -1.632475,-0.5622 1.654097,-2.8433 5.600146,-4.8542 7.827231,-4.8542 l 7.935342,0 c -0.864887,-0.7567 -1.816263,-1.5135 -2.832506,-2.0541 l -3.491983,0 c -1.427065,-0.8649 -3.005484,-1.6216 -4.627148,-2.1514 -1.989241,0 -3.891994,0.3568 -5.643391,1.0163 2.097352,0.087 4.34606,0.6162 6.432601,1.4811 -0.627044,0.1838 -1.264898,0.4432 -1.924375,0.7568 -1.145976,-0.5946 -2.983862,-1.092 -5.405546,-1.092 l -1.513553,0 c -1.016243,0.5406 -1.967619,1.2974 -2.832507,2.0542 l 4.34606,0 c 1.005431,-0.033 2.162218,0.086 3.146028,0.3459 z m 0.89732,7.8272 c 0.572988,0.4217 1.113543,0.9082 1.589231,1.4487 -0.259466,0.5081 -0.475688,1.0379 -0.648665,1.5893 -0.432444,-0.573 -0.951377,-1.0812 -1.535176,-1.5352 0.162167,-0.519 0.367577,-1.0163 0.59461,-1.5028 z"
       class="st3"
       inkscape:connector-curvature="0" />
    <path
       style="fill:#88aa00"
       id="path30"
       d="m 28.908381,1033.2302 0,10.2921 c 0.756776,-0.2378 1.405442,-0.5189 2.054108,-0.8432 l 0,-9.4489 c 0,-2.5298 1.751397,-4.119 4.400114,-4.119 l 4.74607,0 c 0.02162,-0.3244 0.03243,-0.7136 0.03243,-1.0703 0,-0.3244 -0.01081,-0.6595 -0.03243,-0.9839 l -4.756881,0 c -3.76226,0 -6.443411,2.5082 -6.443411,6.1732 z"
       class="st4"
       inkscape:connector-curvature="0" />
    <path
       style="fill:#88aa00"
       id="path19-3"
       d="M 17.55422,1087.851"
       class="st1"
       inkscape:connector-curvature="0"
       inkscape:export-filename="/home/gir/workspace/java/KuwaibaRCP/trunk/branding/core/core.jar/org/netbeans/core/startup/frame.gif.png"
       inkscape:export-xdpi="35.690384"
       inkscape:export-ydpi="35.690384" />
    <path
       style="fill:#ffffff"
       id="path24-6"
       d="m 23.359777,1051.2554 c -11.124614,0 -20.1734987,9.0489 -20.1734987,20.1735 0,11.1247 9.0488847,20.1735 20.1734987,20.1735 11.124615,0 20.1735,-9.0488 20.1735,-20.1735 0,-11.1246 -9.048885,-20.1735 -20.1735,-20.1735 z m 0,38.3686 c -10.032694,0 -18.1950687,-8.1624 -18.1950687,-18.1951 0,-10.0327 8.1623747,-18.195 18.1950687,-18.195 10.032695,0 18.19507,8.1623 18.19507,18.195 0,10.0327 -8.162375,18.1951 -18.19507,18.1951 z"
       class="st2"
       inkscape:connector-curvature="0"
       inkscape:export-filename="/home/gir/workspace/java/KuwaibaRCP/trunk/branding/core/core.jar/org/netbeans/core/startup/frame.gif.png"
       inkscape:export-xdpi="35.690384"
       inkscape:export-ydpi="35.690384" />
    <path
       style="fill:#88aa00"
       id="path27-3"
       d="m 19.932661,1059.6989 c -0.345955,0.2487 -0.69191,0.4865 -1.016243,0.8108 h -7.665065 c -0.583799,0.6487 -1.102731,1.2974 -1.5784197,2.0541 H 17.05691 c -0.2919,0.4325 -0.551366,0.8649 -0.767588,1.4055 H 8.8512903 c -0.345955,0.6487 -0.637854,1.2973 -0.886509,2.0541 h 8.4650857 c 0.875698,0 1.762208,0.173 2.594662,0.5081 -0.227033,0.4649 -0.432444,0.9622 -0.605421,1.4595 -1.167598,-0.5081 -2.475741,-0.7784 -3.881183,-0.7784 H 7.5972043 c -0.183789,0.6487 -0.313522,1.2973 -0.410822,2.0541 h 7.3515427 c 1.232465,0 2.378441,0.2595 3.36225,0.7568 -0.108111,0.6487 -0.172977,1.319 -0.172977,1.9892 -1.28652,-0.9838 -2.983862,-1.5568 -4.789314,-1.5568 H 7.0890823 c -0.02162,0.3244 -0.03243,0.6487 -0.03243,0.9839 0,0.3567 0.01081,0.7459 0.03243,1.0703 h 5.8488017 c 1.081109,0 2.162218,0.2702 3.048728,0.7892 0.800021,0.4756 1.394631,1.1027 1.751397,1.8378 0,4.4434 0,9.5895 0,11.6003 0.670288,0.2487 1.362198,0.4541 2.064919,0.6055 0,-1.546 0,-9.8706 0,-15.1896 0,-0.2487 0.01081,-0.4865 0.02162,-0.7244 0.929754,1.0271 1.491931,2.3352 1.502742,3.7839 0,4.2812 -0.03243,10.303 -0.03243,12.4003 0.670288,0.087 1.362198,0.1406 2.064919,0.1406 0.01081,-1.9244 0.03243,-8.1083 0.03243,-12.5409 h 0 c 0,0 0,0 0,-0.022 0,-0.5514 0,-1.0595 0,-1.5352 0,-0.9622 0.162167,-1.8379 0.443255,-2.6703 0.681099,1.2649 1.08111,2.6055 1.08111,4.119 h 0.01081 c 0,0.1081 -0.01081,0.1946 -0.01081,0.3027 0.02162,3.3082 0.03243,9.9787 0.04324,12.2706 0.702721,-0.065 1.394631,-0.1838 2.064919,-0.3351 -0.01081,-2.5406 -0.02162,-8.8003 -0.04325,-11.9679 -0.01081,-1.7622 0.59461,-3.319 1.697342,-4.4326 1.102731,-1.1027 2.605473,-1.6649 4.346059,-1.6649 h 6.540712 c -0.0973,-0.7567 -0.227033,-1.4054 -0.410822,-2.0541 h -6.12989 c -2.270329,0 -4.335248,0.7892 -5.805557,2.2704 -0.432443,0.4324 -0.80002,0.8973 -1.113542,1.427 -0.313522,-0.7243 -0.69191,-1.4162 -1.135165,-2.0649 1.373009,-1.8487 3.546039,-3.0379 6.03259,-3.0379 h 7.708309 c -0.259466,-0.7568 -0.572988,-1.4055 -0.929754,-2.0541 h -6.789366 c -2.57304,0 -4.983914,1.0054 -6.800178,2.8325 -0.194599,0.2054 -0.389199,0.4108 -0.562176,0.627 -0.518933,-0.5297 -1.070299,-1.0054 -1.664909,-1.427 1.545987,-1.9677 3.805505,-3.2109 6.313679,-3.2109 h 8.81104 c -0.475688,-0.7568 -1.005431,-1.4055 -1.578419,-2.0541 h -7.232621 c -2.843318,0 -5.502847,1.2216 -7.492088,3.4487 -0.227033,0.2487 -0.432444,0.5081 -0.637854,0.7784 -0.529744,-0.2378 -1.08111,-0.4216 -1.632475,-0.5622 1.654097,-2.8433 5.600146,-4.8542 7.827231,-4.8542 h 7.935342 c -0.864887,-0.7567 -1.816263,-1.5135 -2.832506,-2.0541 h -3.491983 c -1.427065,-0.8649 -3.005484,-1.6216 -4.627148,-2.1514 -1.989241,0 -3.891994,0.3568 -5.643391,1.0163 2.097352,0.087 4.34606,0.6162 6.432601,1.4811 -0.627044,0.1838 -1.264898,0.4432 -1.924375,0.7568 -1.145976,-0.5946 -2.983862,-1.092 -5.405546,-1.092 H 15.27308 c -1.016243,0.5406 -1.967619,1.2974 -2.832507,2.0542 h 4.34606 c 1.005431,-0.033 2.162218,0.086 3.146028,0.3459 z m 0.89732,7.8272 c 0.572988,0.4217 1.113543,0.9082 1.589231,1.4487 -0.259466,0.5081 -0.475688,1.0379 -0.648665,1.5893 -0.432444,-0.573 -0.951377,-1.0812 -1.535176,-1.5352 0.162167,-0.519 0.367577,-1.0163 0.59461,-1.5028 z"
       class="st3"
       inkscape:connector-curvature="0"
       inkscape:export-filename="/home/gir/workspace/java/KuwaibaRCP/trunk/branding/core/core.jar/org/netbeans/core/startup/frame.gif.png"
       inkscape:export-xdpi="35.690384"
       inkscape:export-ydpi="35.690384" />
    <path
       style="fill:#88aa00"
       id="path30-0"
       d="m 28.440991,1076.6291 v 10.2921 c 0.756776,-0.2378 1.405442,-0.5189 2.054108,-0.8432 v -9.4489 c 0,-2.5298 1.751397,-4.119 4.400114,-4.119 h 4.74607 c 0.02162,-0.3244 0.03243,-0.7136 0.03243,-1.0703 0,-0.3244 -0.01081,-0.6595 -0.03243,-0.9839 h -4.756881 c -3.76226,0 -6.443411,2.5082 -6.443411,6.1732 z"
       class="st4"
       inkscape:connector-curvature="0"
       inkscape:export-filename="/home/gir/workspace/java/KuwaibaRCP/trunk/branding/core/core.jar/org/netbeans/core/startup/frame.gif.png"
       inkscape:export-xdpi="35.690384"
       inkscape:export-ydpi="35.690384" />
    <path
       style="fill:#88aa00;fill-opacity:1;stroke:#feffff;stroke-opacity:1"
       d="m 21.26728,1089.4286 c -7.538434,-0.8766 -13.7771197,-6.4405 -15.5509927,-13.8691 -0.925668,-3.8765 -0.406181,-8.57 1.332882,-12.0424 1.79138,-3.5768 4.6202347,-6.4441 8.0848927,-8.1947 2.77253,-1.401 5.210543,-1.992 8.220568,-1.993 8.187578,0 15.221488,5.377 17.511762,13.3933 0.794885,2.7822 0.772834,6.5307 -0.05619,9.5525 -1.300046,4.7387 -4.605396,8.8386 -8.981495,11.1403 -3.337471,1.7555 -6.91403,2.4372 -10.561424,2.0131 l 0,0 z m 2.151605,-9.2991 c 0.04432,-6.4229 0.0844,-7.7736 0.246413,-8.3022 l 0.193485,-0.6313 0.263545,0.5761 c 0.694365,1.5179 0.697411,1.5545 0.747107,8.9887 l 0.04621,6.9133 0.349957,0 c 0.192476,0 0.67195,-0.065 1.065496,-0.1437 l 0.71554,-0.1437 0.0019,-6.3907 c 0.002,-6.9194 0.03281,-7.2984 0.699612,-8.6143 0.440588,-0.8694 1.216124,-1.6817 2.100846,-2.2002 1.275347,-0.7474 1.77902,-0.8164 5.960032,-0.8164 l 3.738279,0 -0.01212,-0.4104 c -0.0067,-0.2257 -0.07807,-0.6945 -0.158681,-1.0417 l -0.146559,-0.6314 -3.660958,-0.035 c -2.993186,-0.029 -3.828789,0 -4.581066,0.1675 -1.737226,0.3829 -3.369177,1.4172 -4.51609,2.8621 l -0.372179,0.4689 -0.538822,-0.9703 -0.538822,-0.9703 0.858759,-0.8244 c 0.483798,-0.4645 1.215679,-1.0051 1.676199,-1.2382 1.554792,-0.7869 1.768394,-0.8149 6.705037,-0.8782 l 4.50055,-0.058 -0.273328,-0.651 c -0.150329,-0.358 -0.375631,-0.8408 -0.50067,-1.0728 l -0.227344,-0.4218 -4.189282,0.055 c -3.84502,0.05 -4.265246,0.077 -5.113698,0.33 -1.698661,0.506 -3.522347,1.6133 -4.457934,2.7068 l -0.331586,0.3876 -0.676397,-0.5917 c -0.372018,-0.3254 -0.719989,-0.5917 -0.773267,-0.5917 -0.474233,0 0.753223,-1.3019 1.936769,-2.0543 0.37463,-0.2381 1.078892,-0.5978 1.565028,-0.7993 l 0.883884,-0.3663 5.271733,-0.039 c 2.899454,-0.021 5.269637,-0.078 5.267075,-0.1262 -0.0026,-0.048 -0.334326,-0.5134 -0.737251,-1.0342 l -0.732591,-0.947 -4.250401,-0.033 c -4.589309,-0.036 -5.244166,0.026 -6.770292,0.6427 -1.310451,0.5293 -2.1693,1.1136 -3.395772,2.3101 l -1.18062,1.1518 -0.740892,-0.2529 -0.740891,-0.253 0.406283,-0.5685 c 1.038472,-1.453 3.234604,-3.0222 5.227269,-3.735 l 1.113659,-0.3984 4.450985,-0.039 c 2.448041,-0.021 4.448564,-0.078 4.445605,-0.1263 -0.0067,-0.1088 -1.071654,-0.9428 -2.005543,-1.5706 l -0.703894,-0.4731 -1.715213,-4e-4 -1.715215,-4e-4 -1.60797,-0.812 c -1.945159,-0.9824 -2.947006,-1.3347 -3.793387,-1.334 -1.128497,9e-4 -3.690067,0.4896 -4.679005,0.8928 -0.353513,0.1441 -0.277628,0.1693 1.136422,0.3777 1.836477,0.2706 4.608821,1.0244 4.608821,1.2531 0,0.077 -1.549226,0.6996 -1.641498,0.6592 -1.431521,-0.6282 -3.644276,-1.0294 -5.703097,-1.034 l -1.220545,0 -0.926029,0.6308 c -0.509316,0.3469 -1.147752,0.8229 -1.418747,1.0578 l -0.492717,0.4271 3.207502,0.075 c 1.764126,0.041 3.424786,0.112 3.690356,0.1566 l 0.482851,0.081 -0.348639,0.3639 -0.34864,0.3639 -3.867094,0 -3.867093,0 -0.320963,0.3472 c -0.411072,0.4447 -1.3677827,1.7334 -1.3677827,1.8424 0,0.046 1.6416427,0.083 3.6480947,0.083 l 3.648095,0 -0.333532,0.6303 -0.333532,0.6303 -3.739261,0 -3.7392607,0 -0.32411,0.726 c -0.17826,0.3993 -0.362643,0.8823 -0.409739,1.0733 l -0.08563,0.3472 4.5909407,0 c 3.637647,0 4.758045,0.041 5.395683,0.1916 0.442607,0.1043 0.850946,0.2183 0.907419,0.2532 0.108555,0.067 -0.364638,1.3218 -0.497871,1.3202 -0.04283,-5e-4 -0.447204,-0.1243 -0.898616,-0.2751 -0.76862,-0.2567 -1.110455,-0.2772 -5.382124,-0.3231 l -4.5613747,-0.049 -0.153207,0.8607 c -0.08426,0.4734 -0.162436,0.946 -0.173715,1.0501 -0.01778,0.1642 0.584997,0.198 4.5251787,0.2538 4.297973,0.061 4.586217,0.08 5.289447,0.3439 0.409069,0.1538 0.761883,0.2977 0.784032,0.3198 0.02215,0.022 0.0069,0.4387 -0.03396,0.9257 l -0.07423,0.8854 -1.04243,-0.5232 c -1.597147,-0.8016 -2.13997,-0.8795 -6.122419,-0.8795 l -3.4723987,0 -0.03646,1.0287 -0.03646,1.0287 3.5719967,0.057 c 3.926108,0.063 4.249069,0.1143 5.524792,0.8803 0.37984,0.228 0.904668,0.6982 1.167352,1.0457 l 0.47725,0.6313 6.31e-4,5.8345 6.31e-4,5.8344 1.016671,0.3212 c 0.559169,0.1766 1.041721,0.3211 1.072339,0.3211 0.03062,0 0.0703,-3.5647 0.08818,-7.9215 l 0.03252,-7.9215 0.413396,0.6241 c 0.227369,0.3433 0.52568,0.9877 0.662913,1.432 0.235038,0.761 0.249516,1.1912 0.249516,7.4157 l 0,6.6078 0.410375,0.051 c 0.225706,0.028 0.704437,0.06 1.063848,0.071 l 0.653473,0.02 0.05293,-7.6709 10e-6,0 z m 6.22505,6.3964 0.938239,-0.3906 0,-5.1605 c 0,-4.9493 0.01096,-5.1898 0.267792,-5.8763 0.507458,-1.3563 1.641084,-2.2179 3.217879,-2.4459 0.478836,-0.069 1.936007,-0.1269 3.238157,-0.1283 l 2.367545,0 0,-1.0888 0,-1.0888 -3.062025,0.066 c -2.11817,0.046 -3.256634,0.1227 -3.69337,0.2491 -2.134182,0.6173 -3.775944,2.2328 -4.295203,4.2263 -0.152125,0.5841 -0.187349,1.7826 -0.187349,6.3749 0,3.9313 0.04117,5.6556 0.135048,5.6556 0.07428,0 0.557254,-0.1758 1.073287,-0.3906 z"
       id="path3125"
       inkscape:connector-curvature="0"
       inkscape:export-filename="/home/gir/workspace/java/KuwaibaRCP/trunk/branding/core/core.jar/org/netbeans/core/startup/frame.gif.png"
       inkscape:export-xdpi="35.690384"
       inkscape:export-ydpi="35.690384" />
    <path
       style="fill:#88aa00"
       id="path19-3-3"
       d="M -42.297318,1079.2646"
       class="st1"
       inkscape:connector-curvature="0"
       inkscape:export-filename="/home/gir/workspace/java/KuwaibaRCP/trunk/branding/core/core.jar/org/netbeans/core/startup/frame.gif.png"
       inkscape:export-xdpi="35.690384"
       inkscape:export-ydpi="35.690384" />
    <path
       style="fill:#ffffff"
       id="path24-6-6"
       d="m -36.491761,1042.669 c -11.124614,0 -20.173499,9.0489 -20.173499,20.1735 0,11.1247 9.048885,20.1735 20.173499,20.1735 11.124615,0 20.1735,-9.0488 20.1735,-20.1735 0,-11.1246 -9.048885,-20.1735 -20.1735,-20.1735 z m 0,38.3686 c -10.032694,0 -18.195069,-8.1624 -18.195069,-18.1951 0,-10.0327 8.162375,-18.195 18.195069,-18.195 10.032695,0 18.19507,8.1623 18.19507,18.195 0,10.0327 -8.162375,18.1951 -18.19507,18.1951 z"
       class="st2"
       inkscape:connector-curvature="0"
       inkscape:export-filename="/home/gir/workspace/java/KuwaibaRCP/trunk/branding/core/core.jar/org/netbeans/core/startup/frame.gif.png"
       inkscape:export-xdpi="35.690384"
       inkscape:export-ydpi="35.690384" />
    <path
       style="fill:#88aa00"
       id="path27-3-7"
       d="m -39.918877,1051.1125 c -0.345955,0.2487 -0.69191,0.4865 -1.016243,0.8108 l -7.665065,0 c -0.583799,0.6487 -1.102731,1.2974 -1.57842,2.0541 l 7.383977,0 c -0.2919,0.4325 -0.551366,0.8649 -0.767588,1.4055 l -7.438032,0 c -0.345955,0.6487 -0.637854,1.2973 -0.886509,2.0541 l 8.465086,0 c 0.875698,0 1.762208,0.173 2.594662,0.5081 -0.227033,0.4649 -0.432444,0.9622 -0.605421,1.4595 -1.167598,-0.5081 -2.475741,-0.7784 -3.881183,-0.7784 l -6.940721,0 c -0.183789,0.6487 -0.313522,1.2973 -0.410822,2.0541 l 7.351543,0 c 1.232465,0 2.378441,0.2595 3.36225,0.7568 -0.108111,0.6487 -0.172977,1.319 -0.172977,1.9892 -1.28652,-0.9838 -2.983862,-1.5568 -4.789314,-1.5568 l -5.848802,0 c -0.02162,0.3244 -0.03243,0.6487 -0.03243,0.9839 0,0.3567 0.01081,0.7459 0.03243,1.0703 l 5.848802,0 c 1.081109,0 2.162218,0.2702 3.048728,0.7892 0.800021,0.4756 1.394631,1.1027 1.751397,1.8378 0,4.4434 0,9.5895 0,11.6003 0.670288,0.2487 1.362198,0.4541 2.064919,0.6055 0,-1.546 0,-9.8706 0,-15.1896 0,-0.2487 0.01081,-0.4865 0.02162,-0.7244 0.929754,1.0271 1.491931,2.3352 1.502742,3.7839 0,4.2812 -0.03243,10.303 -0.03243,12.4003 0.670288,0.087 1.362198,0.1406 2.064919,0.1406 0.01081,-1.9244 0.03243,-8.1083 0.03243,-12.5409 l 0,0 c 0,0 0,0 0,-0.022 0,-0.5514 0,-1.0595 0,-1.5352 0,-0.9622 0.162167,-1.8379 0.443255,-2.6703 0.681099,1.2649 1.08111,2.6055 1.08111,4.119 l 0.01081,0 c 0,0.1081 -0.01081,0.1946 -0.01081,0.3027 0.02162,3.3082 0.03243,9.9787 0.04324,12.2706 0.702721,-0.065 1.394631,-0.1838 2.064919,-0.3351 -0.01081,-2.5406 -0.02162,-8.8003 -0.04325,-11.9679 -0.01081,-1.7622 0.59461,-3.319 1.697342,-4.4326 1.102731,-1.1027 2.605473,-1.6649 4.346059,-1.6649 l 6.540712,0 c -0.0973,-0.7567 -0.227033,-1.4054 -0.410822,-2.0541 l -6.12989,0 c -2.270329,0 -4.335248,0.7892 -5.805557,2.2704 -0.432443,0.4324 -0.80002,0.8973 -1.113542,1.427 -0.313522,-0.7243 -0.69191,-1.4162 -1.135165,-2.0649 1.373009,-1.8487 3.546039,-3.0379 6.03259,-3.0379 l 7.708309,0 c -0.259466,-0.7568 -0.572988,-1.4055 -0.929754,-2.0541 l -6.789366,0 c -2.57304,0 -4.983914,1.0054 -6.800178,2.8325 -0.194599,0.2054 -0.389199,0.4108 -0.562176,0.627 -0.518933,-0.5297 -1.070299,-1.0054 -1.664909,-1.427 1.545987,-1.9677 3.805505,-3.2109 6.313679,-3.2109 l 8.81104,0 c -0.475688,-0.7568 -1.005431,-1.4055 -1.578419,-2.0541 l -7.232621,0 c -2.843318,0 -5.502847,1.2216 -7.492088,3.4487 -0.227033,0.2487 -0.432444,0.5081 -0.637854,0.7784 -0.529744,-0.2378 -1.08111,-0.4216 -1.632475,-0.5622 1.654097,-2.8433 5.600146,-4.8542 7.827231,-4.8542 l 7.935342,0 c -0.864887,-0.7567 -1.816263,-1.5135 -2.832506,-2.0541 l -3.491983,0 c -1.427065,-0.8649 -3.005484,-1.6216 -4.627148,-2.1514 -1.989241,0 -3.891994,0.3568 -5.643391,1.0163 2.097352,0.087 4.34606,0.6162 6.432601,1.4811 -0.627044,0.1838 -1.264898,0.4432 -1.924375,0.7568 -1.145976,-0.5946 -2.983862,-1.092 -5.405546,-1.092 l -1.513543,0 c -1.016243,0.5406 -1.967619,1.2974 -2.832507,2.0542 l 4.34606,0 c 1.005431,-0.033 2.162218,0.086 3.146028,0.3459 z m 0.89732,7.8272 c 0.572988,0.4217 1.113543,0.9082 1.589231,1.4487 -0.259466,0.5081 -0.475688,1.0379 -0.648665,1.5893 -0.432444,-0.573 -0.951377,-1.0812 -1.535176,-1.5352 0.162167,-0.519 0.367577,-1.0163 0.59461,-1.5028 z"
       class="st3"
       inkscape:connector-curvature="0"
       inkscape:export-filename="/home/gir/workspace/java/KuwaibaRCP/trunk/branding/core/core.jar/org/netbeans/core/startup/frame.gif.png"
       inkscape:export-xdpi="35.690384"
       inkscape:export-ydpi="35.690384" />
    <path
       style="fill:#88aa00"
       id="path30-0-5"
       d="m -31.410547,1068.0427 0,10.2921 c 0.756776,-0.2378 1.405442,-0.5189 2.054108,-0.8432 l 0,-9.4489 c 0,-2.5298 1.751397,-4.119 4.400114,-4.119 l 4.74607,0 c 0.02162,-0.3244 0.03243,-0.7136 0.03243,-1.0703 0,-0.3244 -0.01081,-0.6595 -0.03243,-0.9839 l -4.756881,0 c -3.76226,0 -6.443411,2.5082 -6.443411,6.1732 z"
       class="st4"
       inkscape:connector-curvature="0"
       inkscape:export-filename="/home/gir/workspace/java/KuwaibaRCP/trunk/branding/core/core.jar/org/netbeans/core/startup/frame.gif.png"
       inkscape:export-xdpi="35.690384"
       inkscape:export-ydpi="35.690384" />
    <path
       style="fill:#88aa00;fill-opacity:1;stroke:#feffff;stroke-opacity:1;stroke-width:0.5;stroke-miterlimit:4;stroke-dasharray:none"
       d="m -38.584258,1080.8422 c -7.538434,-0.8766 -13.77712,-6.4405 -15.550993,-13.8691 -0.925668,-3.8765 -0.406181,-8.57 1.332882,-12.0424 1.79138,-3.5768 4.620235,-6.4441 8.084893,-8.1947 2.77253,-1.401 5.210543,-1.992 8.220568,-1.993 8.187578,0 15.221488,5.377 17.511762,13.3933 0.794885,2.7822 0.772834,6.5307 -0.05619,9.5525 -1.300046,4.7387 -4.605396,8.8386 -8.981495,11.1403 -3.337471,1.7555 -6.91403,2.4372 -10.561424,2.0131 l 0,0 z m 2.151605,-9.2991 c 0.04432,-6.4229 0.0844,-7.7736 0.246413,-8.3022 l 0.193485,-0.6313 0.263545,0.5761 c 0.694365,1.5179 0.697411,1.5545 0.747107,8.9887 l 0.04621,6.9133 0.349957,0 c 0.192476,0 0.67195,-0.065 1.065496,-0.1437 l 0.71554,-0.1437 0.0019,-6.3907 c 0.002,-6.9194 0.03281,-7.2984 0.699612,-8.6143 0.440588,-0.8694 1.216124,-1.6817 2.100846,-2.2002 1.275347,-0.7474 1.77902,-0.8164 5.960032,-0.8164 l 3.738279,0 -0.01212,-0.4104 c -0.0067,-0.2257 -0.07807,-0.6945 -0.158681,-1.0417 l -0.146559,-0.6314 -3.660958,-0.035 c -2.993186,-0.029 -3.828789,0 -4.581066,0.1675 -1.737226,0.3829 -3.369177,1.4172 -4.51609,2.8621 l -0.372179,0.4689 -0.538822,-0.9703 -0.538822,-0.9703 0.858759,-0.8244 c 0.483798,-0.4645 1.215679,-1.0051 1.676199,-1.2382 1.554792,-0.7869 1.768394,-0.8149 6.705037,-0.8782 l 4.50055,-0.058 -0.273328,-0.651 c -0.150329,-0.358 -0.375631,-0.8408 -0.50067,-1.0728 l -0.227344,-0.4218 -4.189282,0.055 c -3.84502,0.05 -4.265246,0.077 -5.113698,0.33 -1.698661,0.506 -3.522347,1.6133 -4.457934,2.7068 l -0.331586,0.3876 -0.676397,-0.5917 c -0.372018,-0.3254 -0.719989,-0.5917 -0.773267,-0.5917 -0.474233,0 0.753223,-1.3019 1.936769,-2.0543 0.37463,-0.2381 1.078892,-0.5978 1.565028,-0.7993 l 0.883884,-0.3663 5.271733,-0.039 c 2.899454,-0.021 5.269637,-0.078 5.267075,-0.1262 -0.0026,-0.048 -0.334326,-0.5134 -0.737251,-1.0342 l -0.732591,-0.947 -4.250401,-0.033 c -4.589309,-0.036 -5.244166,0.026 -6.770292,0.6427 -1.310451,0.5293 -2.1693,1.1136 -3.395772,2.3101 l -1.18062,1.1518 -0.740892,-0.2529 -0.740891,-0.253 0.406283,-0.5685 c 1.038472,-1.453 3.234604,-3.0222 5.227269,-3.735 l 1.113659,-0.3984 4.450985,-0.039 c 2.448041,-0.021 4.448564,-0.078 4.445605,-0.1263 -0.0067,-0.1088 -1.071654,-0.9428 -2.005543,-1.5706 l -0.703894,-0.4731 -1.715213,-4e-4 -1.715215,-4e-4 -1.60797,-0.812 c -1.945159,-0.9824 -2.947006,-1.3347 -3.793387,-1.334 -1.128497,9e-4 -3.690067,0.4896 -4.679005,0.8928 -0.353513,0.1441 -0.277628,0.1693 1.136422,0.3777 1.836477,0.2706 4.608821,1.0244 4.608821,1.2531 0,0.077 -1.549226,0.6996 -1.641498,0.6592 -1.431521,-0.6282 -3.644276,-1.0294 -5.703097,-1.034 l -1.220545,0 -0.926029,0.6308 c -0.509316,0.3469 -1.147752,0.8229 -1.418747,1.0578 l -0.492717,0.4271 3.207502,0.075 c 1.764126,0.041 3.424786,0.112 3.690356,0.1566 l 0.482851,0.081 -0.348639,0.3639 -0.34864,0.3639 -3.867094,0 -3.867093,0 -0.320963,0.3472 c -0.411072,0.4447 -1.367783,1.7334 -1.367783,1.8424 0,0.046 1.641643,0.083 3.648095,0.083 l 3.648095,0 -0.333532,0.6303 -0.333532,0.6303 -3.739261,0 -3.739261,0 -0.32411,0.726 c -0.17826,0.3993 -0.362643,0.8823 -0.409739,1.0733 l -0.08563,0.3472 4.590941,0 c 3.637647,0 4.758045,0.041 5.395683,0.1916 0.442607,0.1043 0.850946,0.2183 0.907419,0.2532 0.108555,0.067 -0.364638,1.3218 -0.497871,1.3202 -0.04283,-5e-4 -0.447204,-0.1243 -0.898616,-0.2751 -0.76862,-0.2567 -1.110455,-0.2772 -5.382124,-0.3231 l -4.561375,-0.049 -0.153207,0.8607 c -0.08426,0.4734 -0.162436,0.946 -0.173715,1.0501 -0.01778,0.1642 0.584997,0.198 4.525179,0.2538 4.297973,0.061 4.586217,0.08 5.289447,0.3439 0.409069,0.1538 0.761883,0.2977 0.784032,0.3198 0.02215,0.022 0.0069,0.4387 -0.03396,0.9257 l -0.07423,0.8854 -1.04243,-0.5232 c -1.597147,-0.8016 -2.13997,-0.8795 -6.122419,-0.8795 l -3.472399,0 -0.03646,1.0287 -0.03646,1.0287 3.571997,0.057 c 3.926108,0.063 4.249069,0.1143 5.524792,0.8803 0.37984,0.228 0.904668,0.6982 1.167352,1.0457 l 0.47725,0.6313 6.31e-4,5.8345 6.31e-4,5.8344 1.016671,0.3212 c 0.559169,0.1766 1.041721,0.3211 1.072339,0.3211 0.03062,0 0.0703,-3.5647 0.08818,-7.9215 l 0.03252,-7.9215 0.413396,0.6241 c 0.227369,0.3433 0.52568,0.9877 0.662913,1.432 0.235038,0.761 0.249516,1.1912 0.249516,7.4157 l 0,6.6078 0.410375,0.051 c 0.225706,0.028 0.704437,0.06 1.063848,0.071 l 0.653473,0.02 0.05293,-7.6709 10e-6,0 z m 6.22505,6.3964 0.938239,-0.3906 0,-5.1605 c 0,-4.9493 0.01096,-5.1898 0.267792,-5.8763 0.507458,-1.3563 1.641084,-2.2179 3.217879,-2.4459 0.478836,-0.069 1.936007,-0.1269 3.238157,-0.1283 l 2.367545,0 0,-1.0888 0,-1.0888 -3.062025,0.066 c -2.11817,0.046 -3.256634,0.1227 -3.69337,0.2491 -2.134182,0.6173 -3.775944,2.2328 -4.295203,4.2263 -0.152125,0.5841 -0.187349,1.7826 -0.187349,6.3749 0,3.9313 0.04117,5.6556 0.135048,5.6556 0.07428,0 0.557254,-0.1758 1.073287,-0.3906 z"
       id="path3125-3"
       inkscape:connector-curvature="0"
       inkscape:export-filename="/home/gir/workspace/java/KuwaibaRCP/trunk/branding/core/core.jar/org/netbeans/core/startup/frame.gif.png"
       inkscape:export-xdpi="35.690384"
       inkscape:export-ydpi="35.690384" />
  </g>
</svg>
