<?xml version="1.0" encoding="UTF-8" standalone="no"?>
<!-- Created with Inkscape (http://www.inkscape.org/) -->

<svg
   xmlns:dc="http://purl.org/dc/elements/1.1/"
   xmlns:cc="http://creativecommons.org/ns#"
   xmlns:rdf="http://www.w3.org/1999/02/22-rdf-syntax-ns#"
   xmlns:svg="http://www.w3.org/2000/svg"
   xmlns="http://www.w3.org/2000/svg"
   xmlns:sodipodi="http://sodipodi.sourceforge.net/DTD/sodipodi-0.dtd"
   xmlns:inkscape="http://www.inkscape.org/namespaces/inkscape"
   width="744.09448819"
   height="1052.3622047"
   id="svg2838"
   version="1.1"
   inkscape:version="0.47 r22583"
   sodipodi:docname="logos.svg"
   inkscape:export-filename="/home/zim/logos.png"
   inkscape:export-xdpi="90"
   inkscape:export-ydpi="90">
  <defs
     id="defs2840">
    <inkscape:perspective
       sodipodi:type="inkscape:persp3d"
       inkscape:vp_x="0 : 526.18109 : 1"
       inkscape:vp_y="0 : 1000 : 0"
       inkscape:vp_z="744.09448 : 526.18109 : 1"
       inkscape:persp3d-origin="372.04724 : 350.78739 : 1"
       id="perspective2846" />
    <inkscape:perspective
       id="perspective2856"
       inkscape:persp3d-origin="0.5 : 0.33333333 : 1"
       inkscape:vp_z="1 : 0.5 : 1"
       inkscape:vp_y="0 : 1000 : 0"
       inkscape:vp_x="0 : 0.5 : 1"
       sodipodi:type="inkscape:persp3d" />
    <inkscape:perspective
       id="perspective3735"
       inkscape:persp3d-origin="0.5 : 0.33333333 : 1"
       inkscape:vp_z="1 : 0.5 : 1"
       inkscape:vp_y="0 : 1000 : 0"
       inkscape:vp_x="0 : 0.5 : 1"
       sodipodi:type="inkscape:persp3d" />
    <inkscape:perspective
       id="perspective3779"
       inkscape:persp3d-origin="0.5 : 0.33333333 : 1"
       inkscape:vp_z="1 : 0.5 : 1"
       inkscape:vp_y="0 : 1000 : 0"
       inkscape:vp_x="0 : 0.5 : 1"
       sodipodi:type="inkscape:persp3d" />
    <inkscape:perspective
       id="perspective2883"
       inkscape:persp3d-origin="0.5 : 0.33333333 : 1"
       inkscape:vp_z="1 : 0.5 : 1"
       inkscape:vp_y="0 : 1000 : 0"
       inkscape:vp_x="0 : 0.5 : 1"
       sodipodi:type="inkscape:persp3d" />
    <inkscape:perspective
       id="perspective2932"
       inkscape:persp3d-origin="0.5 : 0.33333333 : 1"
       inkscape:vp_z="1 : 0.5 : 1"
       inkscape:vp_y="0 : 1000 : 0"
       inkscape:vp_x="0 : 0.5 : 1"
       sodipodi:type="inkscape:persp3d" />
    <inkscape:perspective
       id="perspective2975"
       inkscape:persp3d-origin="0.5 : 0.33333333 : 1"
       inkscape:vp_z="1 : 0.5 : 1"
       inkscape:vp_y="0 : 1000 : 0"
       inkscape:vp_x="0 : 0.5 : 1"
       sodipodi:type="inkscape:persp3d" />
    <inkscape:perspective
       id="perspective3021"
       inkscape:persp3d-origin="0.5 : 0.33333333 : 1"
       inkscape:vp_z="1 : 0.5 : 1"
       inkscape:vp_y="0 : 1000 : 0"
       inkscape:vp_x="0 : 0.5 : 1"
       sodipodi:type="inkscape:persp3d" />
  </defs>
  <sodipodi:namedview
     id="base"
     pagecolor="#ffffff"
     bordercolor="#666666"
     borderopacity="1.0"
     inkscape:pageopacity="0.0"
     inkscape:pageshadow="2"
     inkscape:zoom="0.98994949"
     inkscape:cx="365.54436"
     inkscape:cy="204.22411"
     inkscape:document-units="px"
     inkscape:current-layer="layer1"
     showgrid="false"
     inkscape:window-width="1280"
     inkscape:window-height="752"
     inkscape:window-x="0"
     inkscape:window-y="0"
     inkscape:window-maximized="1" />
  <metadata
     id="metadata2843">
    <rdf:RDF>
      <cc:Work
         rdf:about="">
        <dc:format>image/svg+xml</dc:format>
        <dc:type
           rdf:resource="http://purl.org/dc/dcmitype/StillImage" />
        <dc:title></dc:title>
      </cc:Work>
    </rdf:RDF>
  </metadata>
  <g
     inkscape:label="Layer 1"
     inkscape:groupmode="layer"
     id="layer1">
    <rect
       style="fill:#000080;fill-opacity:1;stroke:none"
       id="rect2816-8-4"
       width="282.72971"
       height="186.96452"
       x="250.06371"
       y="94.594193"
       ry="15.262412" />
    <path
       style="fill:none;stroke:#ffffff;stroke-width:1.66307425;stroke-linecap:butt;stroke-linejoin:miter;stroke-miterlimit:4;stroke-opacity:1;stroke-dasharray:none"
       d="m 370.89588,179.3384 19.17714,-43.79716 21.65152,43.91124"
       id="path3596-7-7"
       sodipodi:nodetypes="ccc" />
    <path
       style="fill:none;stroke:#ffffff;stroke-width:1.66307425;stroke-linecap:butt;stroke-linejoin:miter;stroke-miterlimit:4;stroke-opacity:1;stroke-dasharray:none"
       d="m 382.18553,151.79409 23.35285,14.96973"
       id="path3598-1-9"
       sodipodi:nodetypes="cc" />
    <path
       style="fill:none;stroke:#ffffff;stroke-width:1.66307425;stroke-linecap:butt;stroke-linejoin:miter;stroke-miterlimit:4;stroke-opacity:1;stroke-dasharray:none"
       d="m 398.73369,151.50895 -22.57966,15.68258"
       id="path3598-6-7-3"
       sodipodi:nodetypes="cc" />
    <path
       sodipodi:type="arc"
       style="fill:none;stroke:#ffffff;stroke-width:2;stroke-miterlimit:4;stroke-opacity:1;stroke-dasharray:none"
       id="path3622-2-9"
       sodipodi:cx="325.35715"
       sodipodi:cy="246.29076"
       sodipodi:rx="3.9285715"
       sodipodi:ry="3.9285715"
       d="m 329.28572,246.29076 a 3.9285715,3.9285715 0 1 1 -7.85714,0 3.9285715,3.9285715 0 1 1 7.85714,0 z"
       transform="matrix(0.86606436,0,0,0.79838601,108.01439,-64.372931)" />
    <path
       style="fill:none;stroke:#ffffff;stroke-width:1.66307425;stroke-linecap:butt;stroke-linejoin:miter;stroke-miterlimit:4;stroke-opacity:1;stroke-dasharray:none"
       d="m 381.78345,123.10923 c 0.13756,0.62061 0.41149,0.55294 0.77424,0.99802 0.0688,0.0843 0.0688,0.21012 0.1546,0.2853 0.0529,0.0463 0.50613,-0.0356 0.61759,0 0.0688,0.0198 0.0858,0.12148 0.1546,0.14245 0.13755,0.0443 0.82585,-0.0463 0.92731,0 0.13756,0.0602 0.1787,0.22515 0.30979,0.2853 0.0529,0.0198 0.10346,0 0.1546,0 0.10346,0 0.21162,-0.0317 0.30979,0 0.26335,0.0811 0.10346,0.14245 0.1546,0.28529 0.17694,0.49142 0.15461,0.10565 0.15461,0.42767 0,0.0475 0.0529,0.14245 0,0.14245 -0.0529,0 0,-0.18993 0,-0.14245 0,0.14245 -0.0353,0.28926 0,0.42763 0.005,0.0198 0.27863,0.24375 0.30979,0.2853 0.0688,0.0886 0.0858,0.19666 0.1546,0.2849 0.0688,0.0938 0.435,0.35058 0.46439,0.42778 0.0353,0.0898 0,0.18994 0,0.2853"
       id="path3628-7-2" />
    <path
       style="fill:none;stroke:#ffffff;stroke-width:1.57992005;stroke-linecap:butt;stroke-linejoin:miter;stroke-miterlimit:4;stroke-opacity:1;stroke-dasharray:none"
       d="m 379.58735,135.48418 c 0.13755,-0.11238 -0.0688,-0.30033 0,-0.42763 0.0353,-0.0601 0.10346,-0.095 0.1546,-0.14245 0.1546,-0.14245 0.30979,-0.28529 0.46439,-0.42767 0.0858,-0.0748 0.3821,-0.38976 0.4644,-0.42766 0.0529,-0.0238 0.63486,0 0.77247,0 0.0529,0 0.10346,0 0.1546,0 0.0529,0 0.10346,-0.0198 0.15461,0 0.0688,0.0277 0.0858,0.11237 0.1546,0.14245 0.0529,0.0198 0.1546,-0.0475 0.1546,0 0,0.0475 -0.20104,0.0198 -0.1546,0 0.13755,-0.0677 0.30626,-0.10605 0.46439,-0.14245 0.0529,-0.0119 0.10346,0.0198 0.1546,0 0.10346,-0.0455 0.65203,-0.60087 0.77418,-0.71285"
       id="path3630-2-8" />
    <path
       style="fill:none;stroke:#ffffff;stroke-width:1.66307425;stroke-linecap:butt;stroke-linejoin:miter;stroke-miterlimit:4;stroke-opacity:1;stroke-dasharray:none"
       d="m 389.59358,119.90144 c 0.0529,0.18835 -0.0529,0.69825 0,0.85542 0.0176,0.0633 0.13755,0.0791 0.1546,0.14245 0.0353,0.0898 -0.0176,0.1931 0,0.28529 0.0353,0.10328 0.12051,0.1844 0.1546,0.2853 0.0176,0.0455 0,0.095 0,0.14245 0,0.24296 -0.0176,0.25522 0.1546,0.57024 0.0353,0.0601 0.12051,0.0823 0.1546,0.14245 0.0176,0.0317 0,0.53636 0,0.57024 0,0.0981 0.0176,0.52698 0,0.57027 -0.0353,0.0601 -0.1205,0.0823 -0.1546,0.14245 -0.0529,0.0855 0.0529,0.20023 0,0.2853 -0.0353,0.0602 -0.10346,0.095 -0.1546,0.14245 -0.0529,0.0475 -0.10346,0.095 -0.1546,0.14245"
       id="path3634-2-3" />
    <path
       style="fill:none;stroke:#ffffff;stroke-width:0.99784446;stroke-linecap:butt;stroke-linejoin:miter;stroke-miterlimit:4;stroke-opacity:0;stroke-dasharray:none"
       d="m 254.96693,211.3879 268.47994,0 0,0"
       id="path3648-1-9" />
    <path
       style="fill:none;stroke:#ffffff;stroke-width:1.66307425;stroke-linecap:butt;stroke-linejoin:miter;stroke-miterlimit:4;stroke-opacity:1;stroke-dasharray:none"
       d="m 259.29724,211.3879 c 10.44528,-5.88233 37.59185,-11.65866 47.63364,-15.96771 65.49244,-28.10362 110.25896,-19.44386 164.55222,0 15.66469,5.61002 34.55555,8.2907 51.96377,15.96771 l 0,0"
       id="path3650-5-1"
       sodipodi:nodetypes="csscc" />
    <path
       style="fill:none;stroke:#ffffff;stroke-width:1.66307425;stroke-linecap:butt;stroke-linejoin:miter;stroke-miterlimit:4;stroke-opacity:1;stroke-dasharray:none"
       d="m 398.184,123.18053 c -0.13755,0.62057 -0.41149,0.55291 -0.77248,0.99799 -0.0688,0.0855 -0.0688,0.21011 -0.1546,0.28529 -0.0529,0.0475 -0.50554,-0.0356 -0.61934,0 -0.0688,0.0198 -0.0858,0.12148 -0.15461,0.14245 -0.13755,0.0443 -0.82579,-0.0463 -0.92731,0 -0.13755,0.0601 -0.1787,0.22516 -0.30979,0.2853 -0.0529,0.0198 -0.10346,0 -0.1546,0 -0.10346,0 -0.21162,-0.0316 -0.30979,0 -0.26335,0.0811 -0.10346,0.14245 -0.1546,0.2853 -0.17694,0.49153 -0.1546,0.10565 -0.1546,0.42767 0,0.0475 -0.0529,0.14245 0,0.14245 0.0529,0 0,-0.18994 0,-0.14245 0,0.14245 0.0353,0.28925 0,0.42774 -0.004,0.0198 -0.27864,0.24375 -0.30979,0.2853 -0.0688,0.0886 -0.0858,0.19666 -0.1546,0.2853 -0.0688,0.0938 -0.435,0.35058 -0.4644,0.42766 -0.0353,0.0898 0,0.18994 0,0.2853"
       id="path3628-8-9-5" />
    <path
       style="fill:none;stroke:#ffffff;stroke-width:1.57992005;stroke-linecap:butt;stroke-linejoin:miter;stroke-miterlimit:4;stroke-opacity:1;stroke-dasharray:none"
       d="m 399.2521,135.86915 c -0.13755,-0.11237 0.0688,-0.30033 0,-0.42766 -0.0353,-0.0602 -0.10346,-0.095 -0.1546,-0.14246 -0.1546,-0.14245 -0.30979,-0.28529 -0.46439,-0.42774 -0.0858,-0.0748 -0.3821,-0.38976 -0.46439,-0.42767 -0.0529,-0.0237 -0.63487,0 -0.77424,0 -0.0529,0 -0.10346,0 -0.15461,0 -0.0529,0 -0.10346,-0.0198 -0.1546,0 -0.0688,0.0317 -0.0858,0.11238 -0.1546,0.14245 -0.0529,0.0198 -0.1546,-0.0475 -0.1546,0 0,0.0475 0.20163,0.0198 0.1546,0 -0.13755,-0.0677 -0.30626,-0.10605 -0.46439,-0.14245 -0.0529,-0.0119 -0.10346,0.0198 -0.1546,0 -0.10346,-0.0455 -0.65203,-0.60086 -0.77418,-0.71285"
       id="path3630-6-4-4" />
    <text
       xml:space="preserve"
       style="font-size:205.65737915px;font-style:normal;font-variant:normal;font-weight:normal;font-stretch:normal;fill:#ffffff;fill-opacity:1;stroke:none;font-family:cmex10;-inkscape-font-specification:cmex10"
       x="245.41969"
       y="290.26862"
       id="text3642-0-1"
       transform="scale(1.1433335,0.87463544)"><tspan
         sodipodi:role="line"
         id="tspan3644-6-1"
         x="245.41969"
         y="290.26862"
         style="font-size:40px;font-style:normal;font-variant:normal;font-weight:normal;font-stretch:normal;fill:#ffffff;font-family:Georgia;-inkscape-font-specification:Georgia">Telcolabs</tspan></text>
    <text
       xml:space="preserve"
       style="font-size:40px;font-style:normal;font-variant:normal;font-weight:normal;font-stretch:normal;fill:#000000;fill-opacity:1;stroke:none;font-family:cmex10;-inkscape-font-specification:cmex10"
       x="308.09653"
       y="407.88486"
       id="text2909"><tspan
         sodipodi:role="line"
         id="tspan2911"
         x="308.09653"
         y="407.88486"
         style="-inkscape-font-specification:URW Gothic L Semi-Bold;font-family:URW Gothic L;font-weight:bold;font-style:normal;font-stretch:normal;font-variant:normal"><tspan
           style="fill:#aad400"
           id="tspan2913">tel</tspan><tspan
           style="fill:#c8ab37"
           id="tspan2917">co</tspan><tspan
           style="fill:#aad400"
           id="tspan2915">labs</tspan></tspan></text>
    <text
       xml:space="preserve"
       style="font-size:40px;font-style:normal;font-variant:normal;font-weight:normal;font-stretch:normal;fill:#000000;fill-opacity:1;stroke:none;font-family:cmex10;-inkscape-font-specification:cmex10"
       x="259.64981"
       y="426.06757"
       id="text2919"><tspan
         sodipodi:role="line"
         id="tspan2921"
         x="259.64981"
         y="426.06757"
         style="font-size:12px;font-style:normal;font-variant:normal;font-weight:normal;font-stretch:normal;font-family:DejaVu Sans;-inkscape-font-specification:DejaVu Sans">services for the telecommunications business</tspan></text>
    <path
       style="fill:none;stroke:#000000;stroke-width:1px;stroke-linecap:butt;stroke-linejoin:miter;stroke-opacity:1"
       d="m 487.85714,370.93361 c 9.44101,2.86165 11.43629,7.64296 11.42857,14.28571"
       id="path3725"
       sodipodi:nodetypes="cc" />
    <path
       style="fill:none;stroke:#000000;stroke-width:1.34061825px;stroke-linecap:butt;stroke-linejoin:miter;stroke-opacity:1"
       d="m 492.0173,364.46615 c 12.10994,4.00962 14.66928,10.70898 14.65937,20.01652"
       id="path3725-3"
       sodipodi:nodetypes="cc" />
    <path
       style="fill:none;stroke:#000000;stroke-width:0.51042783px;stroke-linecap:butt;stroke-linejoin:miter;stroke-opacity:1"
       d="m 487.11235,378.04596 c 4.82992,1.45736 5.85068,3.89233 5.84673,7.27529"
       id="path3725-5"
       sodipodi:nodetypes="cc" />
    <text
       xml:space="preserve"
       style="font-size:40px;font-style:normal;font-variant:normal;font-weight:normal;font-stretch:normal;fill:#000000;fill-opacity:1;stroke:none;font-family:cmex10;-inkscape-font-specification:cmex10"
       x="307.81833"
       y="541.97131"
       id="text2909-3"><tspan
         sodipodi:role="line"
         id="tspan2911-4"
         x="307.81833"
         y="541.97131"
         style="font-style:normal;font-variant:normal;font-weight:bold;font-stretch:normal;font-family:URW Gothic L;-inkscape-font-specification:URW Gothic L Semi-Bold"><tspan
           style="fill:#aad400"
           id="tspan2913-8">tel</tspan><tspan
           style="fill:#c8ab37"
           id="tspan2917-0">co</tspan><tspan
           style="fill:#aad400"
           id="tspan2915-3">labs</tspan></tspan></text>
    <text
       xml:space="preserve"
       style="font-size:40px;font-style:normal;font-variant:normal;font-weight:normal;font-stretch:normal;fill:#000000;fill-opacity:1;stroke:none;font-family:cmex10;-inkscape-font-specification:cmex10"
       x="259.37164"
       y="560.15405"
       id="text2919-1"><tspan
         sodipodi:role="line"
         id="tspan2921-5"
         x="259.37164"
         y="560.15405"
         style="font-size:12px;font-style:normal;font-variant:normal;font-weight:normal;font-stretch:normal;font-family:DejaVu Sans;-inkscape-font-specification:DejaVu Sans">services for the telecommunications business</tspan></text>
    <text
       xml:space="preserve"
       style="font-size:40px;font-style:normal;font-variant:normal;font-weight:bold;font-stretch:normal;fill:#000000;fill-opacity:1;stroke:none;font-family:Lucida Sans;-inkscape-font-specification:Lucida Sans Bold"
       x="160.53049"
       y="719.74597"
       id="text2858"><tspan
         sodipodi:role="line"
         id="tspan2860"
         x="160.53049"
         y="719.74597"
         style="font-style:normal;font-variant:normal;font-weight:bold;font-stretch:normal;font-family:Lucida Sans;-inkscape-font-specification:Lucida Sans Bold">Open</tspan><tspan
         sodipodi:role="line"
         x="160.53049"
         y="769.74597"
         id="tspan2862"
         style="font-style:normal;font-variant:normal;font-weight:bold;font-stretch:normal;font-family:Lucida Sans;-inkscape-font-specification:Lucida Sans Bold">Network</tspan><tspan
         sodipodi:role="line"
         x="160.53049"
         y="819.74597"
         id="tspan2864"
         style="font-style:normal;font-variant:normal;font-weight:bold;font-stretch:normal;font-family:Lucida Sans;-inkscape-font-specification:Lucida Sans Bold">Inventory</tspan></text>
    <g
       transform="translate(-90.577384,140.79229)"
       id="g3700">
      <rect
         ry="0"
         y="654.11639"
         x="572.33606"
         height="36.411045"
         width="112.64667"
         id="rect3674"
         style="fill:#442178;fill-opacity:1;stroke:none" />
      <rect
         transform="matrix(0,1,-1,0,0,0)"
         ry="0"
         y="-685.84491"
         x="576.7605"
         height="36.411045"
         width="112.64667"
         id="rect3674-8"
         style="fill:#442178;fill-opacity:1;stroke:none" />
    </g>
    <rect
       style="fill:#7fff2a;fill-opacity:1;stroke:none"
       id="rect3698"
       width="101.26821"
       height="109.23313"
       x="453.0369"
       y="679.43494" />
    <text
       xml:space="preserve"
       style="font-size:40px;font-style:normal;font-variant:normal;font-weight:normal;font-stretch:normal;fill:#000000;fill-opacity:1;stroke:none;font-family:cmex10;-inkscape-font-specification:cmex10"
       x="28.128942"
       y="975.96844"
       id="text2909-3-1"><tspan
         sodipodi:role="line"
         id="tspan2911-4-0"
         x="28.128942"
         y="975.96844"
         style="font-style:normal;font-variant:normal;font-weight:bold;font-stretch:normal;fill:#ff6600;font-family:URW Gothic L;-inkscape-font-specification:URW Gothic L Semi-Bold"><tspan
           style="fill:#44aa00"
           id="tspan3003">Kuwaiba Network Inventory</tspan></tspan></text>
    <text
       xml:space="preserve"
       style="font-size:40px;font-style:normal;font-variant:normal;font-weight:normal;font-stretch:normal;fill:#000000;fill-opacity:1;stroke:none;font-family:cmex10;-inkscape-font-specification:cmex10"
       x="566.69666"
       y="954.32544"
       id="text2909-3-1-4"><tspan
         sodipodi:role="line"
         id="tspan2911-4-0-5"
         x="566.69666"
         y="954.32544"
         style="font-size:28px;font-style:normal;font-variant:normal;font-weight:bold;font-stretch:normal;fill:#ff6600;font-family:URW Gothic L;-inkscape-font-specification:URW Gothic L Semi-Bold">Open</tspan></text>
  </g>
</svg>
