<?xml version="1.0" encoding="UTF-8" standalone="no"?>
<!-- Generator: Adobe Illustrator 16.0.0, SVG Export Plug-In . SVG Version: 6.00 Build 0)  -->

<svg
   xmlns:dc="http://purl.org/dc/elements/1.1/"
   xmlns:cc="http://creativecommons.org/ns#"
   xmlns:rdf="http://www.w3.org/1999/02/22-rdf-syntax-ns#"
   xmlns:svg="http://www.w3.org/2000/svg"
   xmlns="http://www.w3.org/2000/svg"
   xmlns:sodipodi="http://sodipodi.sourceforge.net/DTD/sodipodi-0.dtd"
   xmlns:inkscape="http://www.inkscape.org/namespaces/inkscape"
   version="1.1"
   id="Capa_1"
   x="0px"
   y="0px"
   width="470.586px"
   height="470.586px"
   viewBox="0 0 470.586 470.586"
   style="enable-background:new 0 0 470.586 470.586;"
   xml:space="preserve"
   sodipodi:docname="text70.svg"
   inkscape:version="0.92.1 r15371"><metadata
     id="metadata41"><rdf:RDF><cc:Work
         rdf:about=""><dc:format>image/svg+xml</dc:format><dc:type
           rdf:resource="http://purl.org/dc/dcmitype/StillImage" /></cc:Work></rdf:RDF></metadata><defs
     id="defs39" /><sodipodi:namedview
     pagecolor="#ffffff"
     bordercolor="#666666"
     borderopacity="1"
     objecttolerance="10"
     gridtolerance="10"
     guidetolerance="10"
     inkscape:pageopacity="0"
     inkscape:pageshadow="2"
     inkscape:window-width="1366"
     inkscape:window-height="745"
     id="namedview37"
     showgrid="false"
     inkscape:zoom="0.50150238"
     inkscape:cx="200.39785"
     inkscape:cy="235.293"
     inkscape:window-x="0"
     inkscape:window-y="0"
     inkscape:window-maximized="1"
     inkscape:current-layer="Capa_1" /><g
     id="g4"
     transform="matrix(1.361167,0,0,1,-81.989043,0)"><path
       d="M 327.081,0 H 90.234 C 74.331,0 61.381,12.959 61.381,28.859 v 412.863 c 0,15.924 12.95,28.863 28.853,28.863 H 380.35 c 15.917,0 28.855,-12.939 28.855,-28.863 V 89.234 Z m 6.81,43.184 35.996,39.121 h -35.996 z m 51.081,398.539 c 0,2.542 -2.081,4.629 -4.635,4.629 H 90.234 c -2.55,0 -4.619,-2.087 -4.619,-4.629 V 28.859 c 0,-2.548 2.069,-4.613 4.619,-4.613 h 219.411 v 70.181 c 0,6.682 5.443,12.099 12.129,12.099 h 63.198 z M 128.364,128.89 H 334.15 c 5.013,0 9.079,4.066 9.079,9.079 0,5.013 -4.066,9.079 -9.079,9.079 H 128.364 c -5.012,0 -9.079,-4.066 -9.079,-9.079 0,-5.012 4.067,-9.079 9.079,-9.079 z m 214.865,70.09 c 0,5.012 -4.066,9.079 -9.079,9.079 H 128.364 c -5.012,0 -9.079,-4.066 -9.079,-9.079 0,-5.013 4.067,-9.079 9.079,-9.079 H 334.15 c 5.013,0 9.079,4.067 9.079,9.079 z m 0,59.013 c 0,5.013 -4.066,9.079 -9.079,9.079 H 128.364 c -5.012,0 -9.079,-4.066 -9.079,-9.079 0,-5.013 4.067,-9.079 9.079,-9.079 H 334.15 c 5.013,0 9.079,4.066 9.079,9.079 z m 0,60.018 c 0,5.013 -4.066,9.079 -9.079,9.079 H 128.364 c -5.012,0 -9.079,-4.066 -9.079,-9.079 0,-5.013 4.067,-9.079 9.079,-9.079 H 334.15 c 5.013,0 9.079,4.066 9.079,9.079 z"
       id="path2"
       inkscape:connector-curvature="0" /></g><g
     id="g6" /><g
     id="g8" /><g
     id="g10" /><g
     id="g12" /><g
     id="g14" /><g
     id="g16" /><g
     id="g18" /><g
     id="g20" /><g
     id="g22" /><g
     id="g24" /><g
     id="g26" /><g
     id="g28" /><g
     id="g30" /><g
     id="g32" /><g
     id="g34" /></svg>