<?xml version="1.0" encoding="utf-8"?>
<!-- Svg Vector Icons : http://www.onlinewebfonts.com/icon -->
<!DOCTYPE svg PUBLIC "-//W3C//DTD SVG 1.1//EN" "http://www.w3.org/Graphics/SVG/1.1/DTD/svg11.dtd">
<svg version="1.1" xmlns="http://www.w3.org/2000/svg" xmlns:xlink="http://www.w3.org/1999/xlink" x="0px" y="0px" viewBox="0 0 1000 1000" enable-background="new 0 0 1000 1000" xml:space="preserve">
<metadata> Svg Vector Icons : http://www.onlinewebfonts.com/icon </metadata>
<g><path d="M500,10c-10.2,0-20.5,3.8-28.1,11.4L21.4,472c-15.2,15.2-15.1,41,0.1,56.2l450.5,450.5c15.2,15.2,41,15.3,56.2,0L978.6,528c15.2-15.2,15.1-41-0.1-56.2L528.1,21.4C520.5,13.8,510.2,10,500,10z M500,76.8l423.3,423.3L500,923.4L76.7,500.1L500,76.8z M341.9,312.3c0,0-5.1,1-5.1,1c0,0-4.3,2.9-4.3,2.9l-16.3,16.3c0,0-3,4.4-3,4.4c0,0-0.9,5-0.9,5c0,0,1,5,1,5c0,0,2.8,4.4,2.8,4.4l148.8,148.8L316.2,648.8v0c0,0-3,4.4-3,4.4c0,0-0.9,5-0.9,5c0,0,1,5,1,5c0,0,2.8,4.4,2.8,4.4l16.3,16.3c0,0,4.5,2.9,4.5,2.9c0,0,5,1,5,1c0,0,5-0.9,5-0.9c0,0,4.4-3,4.4-3l148.7-148.7l148.7,148.7c0,0,4.5,2.9,4.5,2.9c0,0,5,1,5,1c0,0,5-0.9,5-0.9c0,0,4.4-3,4.4-3l16.3-16.3c0,0,2.9-4.3,2.9-4.3c0,0,1-5.1,1-5.1c0,0-1-5-1-5c0,0-2.9-4.5-2.9-4.5L535.1,500l148.7-148.7c0,0,2.9-4.3,2.9-4.3c0,0,1-5.1,1-5.1c0,0-1-5-1-5c0,0-3-4.4-3-4.4l-16.3-16.3c0,0-4.3-2.9-4.3-2.9c0,0-5-1-5-1c0,0-5.1,1-5.1,1c0,0-4.3,2.9-4.3,2.9L500,464.9L351.2,316.1v0c0,0-4.4-2.8-4.4-2.8C346.8,313.3,341.9,312.3,341.9,312.3L341.9,312.3z"/></g>
</svg>