<?xml version="1.0" encoding="utf-8"?>
<!-- Svg Vector Icons : http://www.onlinewebfonts.com/icon -->
<!DOCTYPE svg PUBLIC "-//W3C//DTD SVG 1.1//EN" "http://www.w3.org/Graphics/SVG/1.1/DTD/svg11.dtd">
<svg version="1.1" xmlns="http://www.w3.org/2000/svg" xmlns:xlink="http://www.w3.org/1999/xlink" x="0px" y="0px" viewBox="0 0 1000 1000" enable-background="new 0 0 1000 1000" xml:space="preserve">
<metadata> Svg Vector Icons : http://www.onlinewebfonts.com/icon </metadata>
<g><path d="M500,10L10,500l490,490l490-490L500,10z M500,102.4L897.6,500L500,897.6L102.4,500L500,102.4z"/><path d="M724.6,459.2H541.5V271.3c0-11.3-9.1-20.4-20.4-20.4h-40.8c-11.3,0-20.4,9.1-20.4,20.4v187.9H275.4c-11.3,0-20.4,9.1-20.4,20.4v40.8c0,11.3,9.1,20.4,20.4,20.4h184.4v179.6c0,11.3,9.1,20.4,20.4,20.4h40.8c11.3,0,20.4-9.1,20.4-20.4V540.8h183.1c11.3,0,20.4-9.1,20.4-20.4v-40.8C745,468.3,735.9,459.2,724.6,459.2"/></g>
</svg>