<?xml version="1.0" encoding="UTF-8" standalone="no"?>
<svg
   xmlns:dc="http://purl.org/dc/elements/1.1/"
   xmlns:cc="http://creativecommons.org/ns#"
   xmlns:rdf="http://www.w3.org/1999/02/22-rdf-syntax-ns#"
   xmlns:svg="http://www.w3.org/2000/svg"
   xmlns="http://www.w3.org/2000/svg"
   width="425px"
   height="88px"
   viewBox="0 0 425 88"
   version="1.1"
   id="SVGRoot">
  <defs
     id="defs473" />
  <metadata
     id="metadata476">
    <rdf:RDF>
      <cc:Work
         rdf:about="">
        <dc:format>image/svg+xml</dc:format>
        <dc:type
           rdf:resource="http://purl.org/dc/dcmitype/StillImage" />
        <dc:title></dc:title>
      </cc:Work>
    </rdf:RDF>
  </metadata>
  <g
     id="layer1">
    <path
       class="cls-1"
       d="m 55.467566,67.123768 c 0,0 -2.1,-0.86 -6.726999,0.747 -4.627,1.607 -5.31,2.79 -7.848,7.1 -2.538,4.31 -3.883,10.7 -5.232,11.959 -1.349,1.259 11.153,-1.477 14.947999,-8.969 3.795,-7.492 1.504,-5.906 4.859,-10.837 z"
       id="path20"
       style="fill:#ffffff;fill-rule:evenodd" />
    <path
       id="Shape_1_copy"
       data-name="Shape 1 copy"
       class="cls-1"
       d="m 36.305567,66.980768 c 0,0 -0.933,-2.069 -5.4,-4.084 -4.467,-2.015 -5.774,-1.627 -10.58,-0.244 -4.806,1.383 -10.179,5.1 -12.0229996,5.081 -1.844,-0.019 9.1119996,6.6 17.0199996,3.772 7.908,-2.828 5.155,-3.255 10.983,-4.525 z"
       style="fill:#ffffff;fill-rule:evenodd" />
    <path
       id="Shape_1_copy_2"
       data-name="Shape 1 copy 2"
       class="cls-1"
       d="m 22.582567,55.049768 c 0,0 1.007,-2.034 -0.267,-6.763 -1.274,-4.729 -2.406,-5.5 -6.524,-8.333 -4.118,-2.833 -10.3999996,-4.634 -11.5559996,-6.069 -1.156,-1.435 0.68,11.229 7.8829996,15.548 7.203,4.319 5.784,1.918 10.464,5.617 z"
       style="fill:#ffffff;fill-rule:evenodd" />
    <path
       id="Shape_1_copy_3"
       data-name="Shape 1 copy 3"
       class="cls-1"
       d="m 20.281567,29.864768 c 0,0 2.116,-0.819 4.371,-5.167 2.255,-4.348 1.937,-5.677 0.817,-10.552 -1.12,-4.8750004 -4.539,-10.4400007 -4.423,-12.2810007 0.116,-1.84100008 -7.079,8.7420007 -4.688,16.7910007 2.391,8.049 2.97,5.321 3.923,11.209 z"
       style="fill:#ffffff;fill-rule:evenodd" />
    <path
       id="Shape_1_copy_6"
       data-name="Shape 1 copy 6"
       class="cls-1"
       d="m 69.086566,32.571768 c 0,0 -0.989,2.042 0.325,6.76 1.314,4.718 2.453,5.475 6.6,8.277 4.147,2.802 10.438,4.544 11.608,5.97 1.17,1.426 -0.777,-11.224 -8.016,-15.48 -7.239,-4.256 -5.805,-1.868 -10.517,-5.527 z"
       style="fill:#ffffff;fill-rule:evenodd" />
    <path
       id="Shape_1_copy_7"
       data-name="Shape 1 copy 7"
       class="cls-1"
       d="m 69.419566,52.739768 c 0,0 -2.127,0.79 -4.44,5.108 -2.313,4.318 -2.014,5.65 -0.96,10.539 1.054,4.889 4.4,10.5 4.256,12.34 -0.144,1.84 7.2,-8.644 4.915,-16.726 -2.285,-8.082 -2.898,-5.36 -3.771,-11.261 z"
       style="fill:#ffffff;fill-rule:evenodd" />
    <path
       id="NEOTROPIC_copy"
       style="fill:#ffffff;stroke-width:2.732"
       d="m 205.23115,19.902518 c -6.23264,0 -11.12847,1.78885 -14.6875,5.36523 -3.54167,3.57639 -5.3125,8.51628 -5.3125,14.81836 0,6.28472 1.77083,11.21463 5.3125,14.79102 3.55903,3.57639 8.45486,5.36523 14.6875,5.36523 6.25,0 11.14583,-1.78884 14.6875,-5.36523 3.54166,-3.57639 5.3125,-8.5063 5.3125,-14.79102 0,-6.30208 -1.77084,-11.24197 -5.3125,-14.81836 -3.54167,-3.57638 -8.4375,-5.36523 -14.6875,-5.36523 z m 113.33203,0 c -5.05208,0 -9.09657,1.82292 -12.13477,5.46875 -3.02083,3.66319 -4.53124,8.56901 -4.53124,14.71484 0,6.14583 1.51041,11.04167 4.53124,14.6875 3.0382,3.64584 7.08269,5.46875 12.13477,5.46875 5.03472,0 9.06315,-1.8329 12.08399,-5.49609 3.02083,-3.64583 4.53124,-8.53169 4.53124,-14.66016 0,-6.14583 -1.51041,-11.05165 -4.53124,-14.71484 -3.02084,-3.64583 -7.04927,-5.46875 -12.08399,-5.46875 z m 90.83399,0 c -5.45139,0 -9.74024,1.80686 -12.86524,5.41797 -3.125,3.59375 -4.6875,8.51563 -4.6875,14.76562 0,6.23264 1.5625,11.15452 4.6875,14.76563 3.125,3.59375 7.41385,5.39062 12.86524,5.39062 2.29166,0 4.46115,-0.3125 6.50976,-0.9375 2.06597,-0.625 4.0191,-1.5625 5.85938,-2.8125 v -3.15234 c -1.77084,1.61458 -3.65387,2.83051 -5.6504,3.64649 -2.01388,0.79861 -4.1493,1.19726 -6.40624,1.19726 -4.89584,0 -8.63781,-1.55252 -11.22461,-4.66016 -2.60417,-3.10763 -3.90625,-7.5868 -3.90625,-13.4375 0,-5.85069 1.30208,-10.32183 3.90625,-13.4121 2.5868,-3.09028 6.32877,-4.63477 11.22461,-4.63477 2.25694,0 4.39236,0.39865 6.40624,1.19727 1.99653,0.78124 3.87956,1.97916 5.6504,3.59374 v -2.99414 c -1.80556,-1.31944 -3.74067,-2.30099 -5.80664,-2.94336 -2.04861,-0.65972 -4.23612,-0.99023 -6.5625,-0.99023 z m -302.99415,0.70313 v 38.88086 h 9.50391 v -26.66602 l 14.14063,26.66602 h 11.19921 v -38.88086 h -9.50586 v 26.66796 l -14.14062,-26.66796 z m 44.63477,0 v 38.88086 h 27.63086 v -7.57813 h -17.60547 v -8.90625 h 16.01563 v -7.57812 h -16.01563 v -7.24024 h 17.03125 v -7.57812 z m 78.04688,0 v 2.13671 h 13.80273 v 36.74415 h 2.62891 v -36.74415 h 13.80273 v -2.13671 z m 37.96874,0 v 38.88086 h 2.60352 v -17.57813 h 7.05859 c 2.30903,0 4.13998,0.45074 5.49415,1.35352 1.31944,0.90277 2.69965,2.75173 4.14062,5.54687 l 5.54688,10.67774 h 2.7871 l -5.44336,-10.625 c -1.31944,-2.53473 -2.33506,-4.25348 -3.04687,-5.15626 -1.00694,-1.24999 -2.04861,-2.06532 -3.125,-2.44726 2.25694,-0.625 3.87153,-1.74479 4.84375,-3.35938 1.0243,-1.6493 1.53711,-3.68055 1.53711,-6.09375 0,-3.74999 -0.98156,-6.55447 -2.94336,-8.41211 -1.9618,-1.85763 -4.93056,-2.7871 -8.90625,-2.7871 z m 78.98438,0 v 38.88086 h 2.60352 v -16.71876 h 7.99609 c 3.87152,0 6.80425,-0.9375 8.80078,-2.8125 1.97917,-1.87499 2.96875,-4.63541 2.96875,-8.28124 0,-3.62848 -0.98958,-6.38087 -2.96875,-8.25586 -1.99653,-1.875 -4.92926,-2.8125 -8.80078,-2.8125 z m 32.10938,0 v 38.88086 h 2.70898 v -38.88086 z m -59.58399,1.32812 c 4.25347,0 7.63086,1.62457 10.13086,4.87109 2.48264,3.24653 3.72461,7.67362 3.72461,13.28125 0,5.57292 -1.24197,9.98199 -3.72461,13.22852 -2.5,3.24653 -5.87739,4.86914 -10.13086,4.86914 -4.25347,0 -7.63889,-1.62261 -10.15625,-4.86914 -2.5,-3.24653 -3.75,-7.6556 -3.75,-13.22852 0,-5.60763 1.25,-10.03472 3.75,-13.28125 2.51736,-3.24652 5.90278,-4.87109 10.15625,-4.87109 z m -48.90625,0.80859 h 8.59375 c 2.77778,0 4.87912,0.71116 6.30273,2.13477 1.42362,1.42361 2.13477,3.53299 2.13477,6.32812 0,2.8125 -0.71115,4.93989 -2.13477,6.38086 -1.42361,1.44098 -3.52495,2.16016 -6.30273,2.16016 h -8.59375 z m 78.98438,0.0254 h 7.99609 c 2.8993,0 5.13889,0.77323 6.71875,2.31836 1.59722,1.5625 2.39453,3.75804 2.39453,6.5879 0,2.88194 -0.79731,5.09548 -2.39453,6.64062 -1.57986,1.54514 -3.81945,2.31836 -6.71875,2.31836 h -7.99609 z m -143.41016,4.4004 c 3.07291,0 5.45074,1.12977 7.13476,3.38671 1.68403,2.25695 2.5254,5.43403 2.5254,9.53125 0,4.07986 -0.84137,7.24697 -2.5254,9.50391 -1.68402,2.25694 -4.06185,3.38672 -7.13476,3.38672 -3.05555,0 -5.42535,-1.12978 -7.10938,-3.38672 -1.68402,-2.25694 -2.52734,-5.42405 -2.52734,-9.50391 0,-4.09722 0.84332,-7.2743 2.52734,-9.53125 1.68403,-2.25694 4.05383,-3.38671 7.10938,-3.38671 z" />
    <path
       id="Shape_1_copy_6-6"
       data-name="Shape 1 copy 6"
       class="cls-1"
       d="m 53.867566,19.406768 c 0,0 0.80156,2.12259 5.12959,4.4148 4.32803,2.29222 5.66101,1.9864 10.54754,0.90445 4.88652,-1.08195 10.47877,-4.44912 12.3186,-4.3172 1.83983,0.13193 -8.68025,-7.15787 -16.74919,-4.83225 -8.06896,2.32564 -5.34935,2.9278 -11.24654,3.8302 z"
       style="fill:#ffffff;fill-rule:evenodd" />
    <path
       id="Shape_1_copy_6-6-7"
       data-name="Shape 1 copy 6"
       class="cls-1"
       d="m 35.355107,20.510778 c 0,0 2.07583,0.91586 6.74419,-0.56486 4.66836,-1.48073 5.38443,-2.64591 8.037389,-6.8898 2.65294,-4.2438704 4.17042,-10.5927607 5.55397,-11.8126707 1.38355,-1.21990008 -11.189329,1.17507 -15.185539,8.5606707 -3.99622,7.38559 -1.66066,5.8677 -5.15001,10.70666 z"
       style="fill:#ffffff;fill-rule:evenodd" />
  </g>
</svg>
